<?xml version="1.0" encoding="UTF-8"?>
<svg version="1.1" xmlns="http://www.w3.org/2000/svg" width="500" height="500">
<path d="M0 0 C1.70878326 -0.01441132 1.70878326 -0.01441132 3.4520874 -0.02911377 C4.69669739 -0.03336365 5.94130737 -0.03761353 7.22363281 -0.04199219 C8.50095276 -0.04769226 9.77827271 -0.05339233 11.09429932 -0.05926514 C13.81140541 -0.0697965 16.52848181 -0.07562224 19.24560547 -0.07910156 C22.69155704 -0.08453 26.13710206 -0.10842463 29.5829277 -0.13707352 C32.90065281 -0.16046402 36.21832974 -0.16217003 39.53613281 -0.16699219 C40.75645203 -0.17933899 41.97677124 -0.19168579 43.23406982 -0.20440674 C51.44779894 -0.18346375 58.74991957 1.09205653 66.67675781 3.16113281 C70.00331628 3.86426712 73.33766028 4.52044818 76.67675781 5.16113281 C76.67675781 5.82113281 76.67675781 6.48113281 76.67675781 7.16113281 C77.66675781 7.09925781 78.65675781 7.03738281 79.67675781 6.97363281 C84.14563992 6.94621636 87.58980389 8.44031011 91.67675781 10.16113281 C91.67675781 10.82113281 91.67675781 11.48113281 91.67675781 12.16113281 C93.32675781 12.16113281 94.97675781 12.16113281 96.67675781 12.16113281 C96.67675781 12.82113281 96.67675781 13.48113281 96.67675781 14.16113281 C98.32675781 14.16113281 99.97675781 14.16113281 101.67675781 14.16113281 C101.67675781 15.15113281 101.67675781 16.14113281 101.67675781 17.16113281 C102.48113281 17.03738281 103.28550781 16.91363281 104.11425781 16.78613281 C108.62712086 17.26117103 110.94395451 19.09099983 114.52832031 21.75097656 C116.63201514 23.13176535 118.22051539 23.72212116 120.67675781 24.16113281 C120.67675781 25.15113281 120.67675781 26.14113281 120.67675781 27.16113281 C121.66675781 27.16113281 122.65675781 27.16113281 123.67675781 27.16113281 C123.67675781 27.82113281 123.67675781 28.48113281 123.67675781 29.16113281 C125.32675781 29.16113281 126.97675781 29.16113281 128.67675781 29.16113281 C128.67675781 29.82113281 128.67675781 30.48113281 128.67675781 31.16113281 C129.33675781 31.16113281 129.99675781 31.16113281 130.67675781 31.16113281 C130.67675781 32.15113281 130.67675781 33.14113281 130.67675781 34.16113281 C132.32675781 34.16113281 133.97675781 34.16113281 135.67675781 34.16113281 C135.67675781 34.82113281 135.67675781 35.48113281 135.67675781 36.16113281 C136.66675781 36.49113281 137.65675781 36.82113281 138.67675781 37.16113281 C138.67675781 37.82113281 138.67675781 38.48113281 138.67675781 39.16113281 C139.33675781 39.16113281 139.99675781 39.16113281 140.67675781 39.16113281 C140.67675781 39.82113281 140.67675781 40.48113281 140.67675781 41.16113281 C142.32675781 41.49113281 143.97675781 41.82113281 145.67675781 42.16113281 C145.67675781 42.82113281 145.67675781 43.48113281 145.67675781 44.16113281 C146.33675781 44.16113281 146.99675781 44.16113281 147.67675781 44.16113281 C147.67675781 44.82113281 147.67675781 45.48113281 147.67675781 46.16113281 C148.66675781 46.16113281 149.65675781 46.16113281 150.67675781 46.16113281 C150.67675781 47.15113281 150.67675781 48.14113281 150.67675781 49.16113281 C151.33675781 49.16113281 151.99675781 49.16113281 152.67675781 49.16113281 C152.67675781 49.82113281 152.67675781 50.48113281 152.67675781 51.16113281 C153.66675781 51.16113281 154.65675781 51.16113281 155.67675781 51.16113281 C156.07894531 52.36769531 156.07894531 52.36769531 156.48925781 53.59863281 C156.88113281 54.44425781 157.27300781 55.28988281 157.67675781 56.16113281 C158.66675781 56.49113281 159.65675781 56.82113281 160.67675781 57.16113281 C160.67675781 57.82113281 160.67675781 58.48113281 160.67675781 59.16113281 C161.33675781 59.16113281 161.99675781 59.16113281 162.67675781 59.16113281 C164.67675781 62.16113281 164.67675781 62.16113281 164.67675781 66.16113281 C165.66675781 66.16113281 166.65675781 66.16113281 167.67675781 66.16113281 C167.67675781 66.82113281 167.67675781 67.48113281 167.67675781 68.16113281 C168.33675781 68.16113281 168.99675781 68.16113281 169.67675781 68.16113281 C169.67675781 69.15113281 169.67675781 70.14113281 169.67675781 71.16113281 C170.66675781 71.16113281 171.65675781 71.16113281 172.67675781 71.16113281 C172.67675781 72.48113281 172.67675781 73.80113281 172.67675781 75.16113281 C173.33675781 75.16113281 173.99675781 75.16113281 174.67675781 75.16113281 C174.67675781 76.15113281 174.67675781 77.14113281 174.67675781 78.16113281 C175.66675781 78.16113281 176.65675781 78.16113281 177.67675781 78.16113281 C177.67675781 79.81113281 177.67675781 81.46113281 177.67675781 83.16113281 C178.33675781 83.16113281 178.99675781 83.16113281 179.67675781 83.16113281 C179.67675781 83.82113281 179.67675781 84.48113281 179.67675781 85.16113281 C180.66675781 85.49113281 181.65675781 85.82113281 182.67675781 86.16113281 C182.67675781 87.48113281 182.67675781 88.80113281 182.67675781 90.16113281 C183.33675781 90.16113281 183.99675781 90.16113281 184.67675781 90.16113281 C186.44138464 93.24922977 186.67675781 94.39425417 186.67675781 98.16113281 C187.66675781 98.49113281 188.65675781 98.82113281 189.67675781 99.16113281 C189.67675781 100.48113281 189.67675781 101.80113281 189.67675781 103.16113281 C190.33675781 103.16113281 190.99675781 103.16113281 191.67675781 103.16113281 C191.67675781 105.47113281 191.67675781 107.78113281 191.67675781 110.16113281 C192.66675781 110.16113281 193.65675781 110.16113281 194.67675781 110.16113281 C194.67675781 111.81113281 194.67675781 113.46113281 194.67675781 115.16113281 C195.33675781 115.16113281 195.99675781 115.16113281 196.67675781 115.16113281 C196.67675781 117.47113281 196.67675781 119.78113281 196.67675781 122.16113281 C197.33675781 122.16113281 197.99675781 122.16113281 198.67675781 122.16113281 C199.00675781 124.47113281 199.33675781 126.78113281 199.67675781 129.16113281 C200.33675781 129.16113281 200.99675781 129.16113281 201.67675781 129.16113281 C201.67675781 132.46113281 201.67675781 135.76113281 201.67675781 139.16113281 C202.33675781 139.16113281 202.99675781 139.16113281 203.67675781 139.16113281 C205.45093449 147.94961511 205.95905808 156.37348836 205.90722656 165.32519531 C205.90676834 166.63845795 205.90631012 167.95172058 205.90583801 169.30477905 C205.90428792 172.06294183 205.89611228 174.8209721 205.88256836 177.57910156 C205.86554737 181.08654625 205.86175601 184.59384672 205.86251354 188.1013279 C205.86217397 191.48846912 205.85332361 194.87556459 205.84472656 198.26269531 C205.84361374 199.50773834 205.84250092 200.75278137 205.84135437 202.03555298 C205.7442316 220.02618523 205.7442316 220.02618523 203.67675781 224.16113281 C203.01675781 224.16113281 202.35675781 224.16113281 201.67675781 224.16113281 C201.67675781 227.46113281 201.67675781 230.76113281 201.67675781 234.16113281 C201.01675781 234.16113281 200.35675781 234.16113281 199.67675781 234.16113281 C199.53238281 235.29550781 199.38800781 236.42988281 199.23925781 237.59863281 C198.67675781 241.16113281 198.67675781 241.16113281 197.67675781 242.16113281 C197.3091505 244.48931245 196.974342 246.82297131 196.67675781 249.16113281 C196.01675781 249.16113281 195.35675781 249.16113281 194.67675781 249.16113281 C194.67675781 250.81113281 194.67675781 252.46113281 194.67675781 254.16113281 C193.68675781 254.16113281 192.69675781 254.16113281 191.67675781 254.16113281 C191.67675781 255.81113281 191.67675781 257.46113281 191.67675781 259.16113281 C191.01675781 259.16113281 190.35675781 259.16113281 189.67675781 259.16113281 C189.67675781 260.81113281 189.67675781 262.46113281 189.67675781 264.16113281 C189.01675781 264.49113281 188.35675781 264.82113281 187.67675781 265.16113281 C187.0246249 267.18576536 187.0246249 267.18576536 186.67675781 269.16113281 C186.01675781 269.16113281 185.35675781 269.16113281 184.67675781 269.16113281 C184.53238281 269.90363281 184.38800781 270.64613281 184.23925781 271.41113281 C183.77488289 273.68141021 183.25812212 275.91872761 182.67675781 278.16113281 C181.68675781 278.16113281 180.69675781 278.16113281 179.67675781 278.16113281 C179.67675781 279.15113281 179.67675781 280.14113281 179.67675781 281.16113281 C179.01675781 281.16113281 178.35675781 281.16113281 177.67675781 281.16113281 C177.34675781 282.81113281 177.01675781 284.46113281 176.67675781 286.16113281 C176.01675781 286.16113281 175.35675781 286.16113281 174.67675781 286.16113281 C174.67675781 286.82113281 174.67675781 287.48113281 174.67675781 288.16113281 C174.01675781 288.16113281 173.35675781 288.16113281 172.67675781 288.16113281 C172.67675781 289.81113281 172.67675781 291.46113281 172.67675781 293.16113281 C171.68675781 293.16113281 170.69675781 293.16113281 169.67675781 293.16113281 C169.01675781 294.81113281 168.35675781 296.46113281 167.67675781 298.16113281 C166.68675781 298.16113281 165.69675781 298.16113281 164.67675781 298.16113281 C164.67675781 298.82113281 164.67675781 299.48113281 164.67675781 300.16113281 C164.01675781 300.16113281 163.35675781 300.16113281 162.67675781 300.16113281 C162.55300781 300.92425781 162.42925781 301.68738281 162.30175781 302.47363281 C161.67675781 305.16113281 161.67675781 305.16113281 159.67675781 308.16113281 C159.01675781 308.16113281 158.35675781 308.16113281 157.67675781 308.16113281 C157.67675781 308.82113281 157.67675781 309.48113281 157.67675781 310.16113281 C157.01675781 310.16113281 156.35675781 310.16113281 155.67675781 310.16113281 C155.34675781 311.15113281 155.01675781 312.14113281 154.67675781 313.16113281 C154.01675781 313.16113281 153.35675781 313.16113281 152.67675781 313.16113281 C152.67675781 313.82113281 152.67675781 314.48113281 152.67675781 315.16113281 C152.01675781 315.16113281 151.35675781 315.16113281 150.67675781 315.16113281 C150.67675781 315.82113281 150.67675781 316.48113281 150.67675781 317.16113281 C148.99707031 318.45019531 148.99707031 318.45019531 146.80175781 319.78613281 C146.08246094 320.23214844 145.36316406 320.67816406 144.62207031 321.13769531 C142.67675781 322.16113281 142.67675781 322.16113281 140.67675781 322.16113281 C140.67675781 323.15113281 140.67675781 324.14113281 140.67675781 325.16113281 C139.02675781 325.82113281 137.37675781 326.48113281 135.67675781 327.16113281 C135.67675781 328.15113281 135.67675781 329.14113281 135.67675781 330.16113281 C134.02675781 330.16113281 132.37675781 330.16113281 130.67675781 330.16113281 C130.67675781 330.82113281 130.67675781 331.48113281 130.67675781 332.16113281 C130.01675781 332.16113281 129.35675781 332.16113281 128.67675781 332.16113281 C128.34675781 333.15113281 128.01675781 334.14113281 127.67675781 335.16113281 C126.35675781 335.16113281 125.03675781 335.16113281 123.67675781 335.16113281 C123.67675781 335.82113281 123.67675781 336.48113281 123.67675781 337.16113281 C122.68675781 337.16113281 121.69675781 337.16113281 120.67675781 337.16113281 C120.67675781 338.15113281 120.67675781 339.14113281 120.67675781 340.16113281 C117.30578398 341.65934341 115.47233662 342.16113281 111.67675781 342.16113281 C111.67675781 342.82113281 111.67675781 343.48113281 111.67675781 344.16113281 C110.68675781 344.16113281 109.69675781 344.16113281 108.67675781 344.16113281 C108.67675781 344.82113281 108.67675781 345.48113281 108.67675781 346.16113281 C106.36675781 346.49113281 104.05675781 346.82113281 101.67675781 347.16113281 C101.67675781 347.82113281 101.67675781 348.48113281 101.67675781 349.16113281 C100.02675781 349.16113281 98.37675781 349.16113281 96.67675781 349.16113281 C96.67675781 350.15113281 96.67675781 351.14113281 96.67675781 352.16113281 C95.02675781 352.16113281 93.37675781 352.16113281 91.67675781 352.16113281 C91.67675781 352.82113281 91.67675781 353.48113281 91.67675781 354.16113281 C90.56300781 354.28488281 89.44925781 354.40863281 88.30175781 354.53613281 C84.64572104 354.80771412 84.64572104 354.80771412 82.67675781 357.16113281 C79.55175781 357.28613281 79.55175781 357.28613281 76.67675781 357.16113281 C76.67675781 357.82113281 76.67675781 358.48113281 76.67675781 359.16113281 C73.37675781 359.16113281 70.07675781 359.16113281 66.67675781 359.16113281 C66.67675781 359.82113281 66.67675781 360.48113281 66.67675781 361.16113281 C59.28838741 364.85531801 48.28387189 363.32221584 40.27050781 363.32910156 C38.89628059 363.33232434 37.5220537 363.33568914 36.14782715 363.33918762 C33.28360194 363.34513571 30.41940672 363.34703186 27.55517578 363.34643555 C23.91086703 363.34633382 20.26675264 363.36001624 16.62248993 363.37720776 C13.78952168 363.38839819 10.95659952 363.39035266 8.12361145 363.38982582 C6.13524934 363.3915561 4.1469016 363.40234382 2.15856934 363.41337585 C-4.91335716 363.39566183 -11.45975892 362.91432142 -18.32324219 361.16113281 C-18.32324219 360.50113281 -18.32324219 359.84113281 -18.32324219 359.16113281 C-21.62324219 359.16113281 -24.92324219 359.16113281 -28.32324219 359.16113281 C-28.32324219 358.50113281 -28.32324219 357.84113281 -28.32324219 357.16113281 C-30.63324219 356.83113281 -32.94324219 356.50113281 -35.32324219 356.16113281 C-35.32324219 355.50113281 -35.32324219 354.84113281 -35.32324219 354.16113281 C-37.63324219 354.16113281 -39.94324219 354.16113281 -42.32324219 354.16113281 C-42.32324219 353.50113281 -42.32324219 352.84113281 -42.32324219 352.16113281 C-43.97324219 352.16113281 -45.62324219 352.16113281 -47.32324219 352.16113281 C-47.32324219 351.17113281 -47.32324219 350.18113281 -47.32324219 349.16113281 C-48.97324219 349.16113281 -50.62324219 349.16113281 -52.32324219 349.16113281 C-52.32324219 348.50113281 -52.32324219 347.84113281 -52.32324219 347.16113281 C-54.30324219 347.16113281 -56.28324219 347.16113281 -58.32324219 347.16113281 C-58.81824219 345.67613281 -58.81824219 345.67613281 -59.32324219 344.16113281 C-60.31324219 344.16113281 -61.30324219 344.16113281 -62.32324219 344.16113281 C-62.32324219 343.50113281 -62.32324219 342.84113281 -62.32324219 342.16113281 C-63.97324219 342.16113281 -65.62324219 342.16113281 -67.32324219 342.16113281 C-67.32324219 341.50113281 -67.32324219 340.84113281 -67.32324219 340.16113281 C-68.97324219 339.83113281 -70.62324219 339.50113281 -72.32324219 339.16113281 C-72.32324219 338.50113281 -72.32324219 337.84113281 -72.32324219 337.16113281 C-73.64324219 337.16113281 -74.96324219 337.16113281 -76.32324219 337.16113281 C-76.32324219 336.50113281 -76.32324219 335.84113281 -76.32324219 335.16113281 C-77.31324219 335.16113281 -78.30324219 335.16113281 -79.32324219 335.16113281 C-79.32324219 334.17113281 -79.32324219 333.18113281 -79.32324219 332.16113281 C-80.31324219 332.16113281 -81.30324219 332.16113281 -82.32324219 332.16113281 C-82.32324219 331.50113281 -82.32324219 330.84113281 -82.32324219 330.16113281 C-83.64324219 330.16113281 -84.96324219 330.16113281 -86.32324219 330.16113281 C-86.32324219 329.17113281 -86.32324219 328.18113281 -86.32324219 327.16113281 C-87.31324219 327.16113281 -88.30324219 327.16113281 -89.32324219 327.16113281 C-89.32324219 326.50113281 -89.32324219 325.84113281 -89.32324219 325.16113281 C-89.98324219 325.16113281 -90.64324219 325.16113281 -91.32324219 325.16113281 C-91.32324219 324.17113281 -91.32324219 323.18113281 -91.32324219 322.16113281 C-92.97324219 322.16113281 -94.62324219 322.16113281 -96.32324219 322.16113281 C-96.32324219 321.50113281 -96.32324219 320.84113281 -96.32324219 320.16113281 C-96.98324219 320.16113281 -97.64324219 320.16113281 -98.32324219 320.16113281 C-98.32324219 319.50113281 -98.32324219 318.84113281 -98.32324219 318.16113281 C-99.31324219 317.83113281 -100.30324219 317.50113281 -101.32324219 317.16113281 C-101.32324219 316.50113281 -101.32324219 315.84113281 -101.32324219 315.16113281 C-102.97324219 314.50113281 -104.62324219 313.84113281 -106.32324219 313.16113281 C-106.32324219 312.17113281 -106.32324219 311.18113281 -106.32324219 310.16113281 C-106.98324219 310.16113281 -107.64324219 310.16113281 -108.32324219 310.16113281 C-108.32324219 309.50113281 -108.32324219 308.84113281 -108.32324219 308.16113281 C-109.31324219 308.16113281 -110.30324219 308.16113281 -111.32324219 308.16113281 C-111.32324219 307.17113281 -111.32324219 306.18113281 -111.32324219 305.16113281 C-111.98324219 305.16113281 -112.64324219 305.16113281 -113.32324219 305.16113281 C-115.61972868 302.59966711 -116.32324219 301.68145709 -116.32324219 298.16113281 C-116.98324219 298.16113281 -117.64324219 298.16113281 -118.32324219 298.16113281 C-118.32324219 297.50113281 -118.32324219 296.84113281 -118.32324219 296.16113281 C-119.31324219 295.83113281 -120.30324219 295.50113281 -121.32324219 295.16113281 C-121.32324219 294.50113281 -121.32324219 293.84113281 -121.32324219 293.16113281 C-121.98324219 293.16113281 -122.64324219 293.16113281 -123.32324219 293.16113281 C-123.32324219 291.51113281 -123.32324219 289.86113281 -123.32324219 288.16113281 C-124.31324219 288.16113281 -125.30324219 288.16113281 -126.32324219 288.16113281 C-126.32324219 287.50113281 -126.32324219 286.84113281 -126.32324219 286.16113281 C-126.98324219 286.16113281 -127.64324219 286.16113281 -128.32324219 286.16113281 C-129.57989197 283.2551302 -130.32324219 281.36508697 -130.32324219 278.16113281 C-131.31324219 278.16113281 -132.30324219 278.16113281 -133.32324219 278.16113281 C-134.82145278 274.79015898 -135.32324219 272.95671162 -135.32324219 269.16113281 C-136.31324219 269.16113281 -137.30324219 269.16113281 -138.32324219 269.16113281 C-138.51660156 268.52304687 -138.70996094 267.88496094 -138.90917969 267.22753906 C-139.16957031 266.40125 -139.42996094 265.57496094 -139.69824219 264.72363281 C-139.95347656 263.89992188 -140.20871094 263.07621094 -140.47167969 262.22753906 C-141.13206446 259.98315265 -141.13206446 259.98315265 -143.32324219 259.16113281 C-143.32324219 257.51113281 -143.32324219 255.86113281 -143.32324219 254.16113281 C-143.98324219 254.16113281 -144.64324219 254.16113281 -145.32324219 254.16113281 C-145.32324219 252.51113281 -145.32324219 250.86113281 -145.32324219 249.16113281 C-145.98324219 249.16113281 -146.64324219 249.16113281 -147.32324219 249.16113281 C-149.58008762 243.80112492 -150.68588078 239.96335032 -150.32324219 234.16113281 C-150.98324219 234.16113281 -151.64324219 234.16113281 -152.32324219 234.16113281 C-152.45601563 233.52304687 -152.58878906 232.88496094 -152.72558594 232.22753906 C-152.9021875 231.40125 -153.07878906 230.57496094 -153.26074219 229.72363281 C-153.43476563 228.89992188 -153.60878906 228.07621094 -153.78808594 227.22753906 C-154.13077212 225.18452077 -154.13077212 225.18452077 -155.32324219 224.16113281 C-155.53267828 222.18603408 -155.69128041 220.20541599 -155.82324219 218.22363281 C-156.00059302 214.03945866 -156.00059302 214.03945866 -157.32324219 210.16113281 C-157.41922178 208.35392088 -157.45119994 206.5431567 -157.45263672 204.73339844 C-157.45578888 203.59882202 -157.45894104 202.46424561 -157.46218872 201.29528809 C-157.46016449 200.06507935 -157.45814026 198.83487061 -157.45605469 197.56738281 C-157.45701141 196.30978149 -157.45796814 195.05218018 -157.45895386 193.75646973 C-157.45963541 191.09330834 -157.4582821 188.43023823 -157.45361328 185.76708984 C-157.44791608 182.3505003 -157.45119605 178.93398931 -157.45718575 175.51740265 C-157.46166444 172.26322653 -157.45853032 169.00905995 -157.45605469 165.75488281 C-157.45807892 164.52467407 -157.46010315 163.29446533 -157.46218872 162.02697754 C-157.45903656 160.89240112 -157.4558844 159.75782471 -157.45263672 158.58886719 C-157.45184113 157.58674194 -157.45104553 156.5846167 -157.45022583 155.55212402 C-157.32324219 153.16113281 -157.32324219 153.16113281 -156.32324219 151.16113281 C-156.09466105 149.12365651 -155.91299941 147.08072978 -155.76074219 145.03613281 C-155.67695313 143.94042969 -155.59316406 142.84472656 -155.50683594 141.71582031 C-155.44625 140.87277344 -155.38566406 140.02972656 -155.32324219 139.16113281 C-154.66324219 139.16113281 -154.00324219 139.16113281 -153.32324219 139.16113281 C-152.99324219 135.86113281 -152.66324219 132.56113281 -152.32324219 129.16113281 C-151.66324219 129.16113281 -151.00324219 129.16113281 -150.32324219 129.16113281 C-150.32324219 126.85113281 -150.32324219 124.54113281 -150.32324219 122.16113281 C-149.66324219 122.16113281 -149.00324219 122.16113281 -148.32324219 122.16113281 C-148.32324219 120.18113281 -148.32324219 118.20113281 -148.32324219 116.16113281 C-146.83824219 115.66613281 -146.83824219 115.66613281 -145.32324219 115.16113281 C-145.32324219 113.51113281 -145.32324219 111.86113281 -145.32324219 110.16113281 C-144.66324219 110.16113281 -144.00324219 110.16113281 -143.32324219 110.16113281 C-142.99324219 107.85113281 -142.66324219 105.54113281 -142.32324219 103.16113281 C-141.66324219 103.16113281 -141.00324219 103.16113281 -140.32324219 103.16113281 C-140.32324219 101.51113281 -140.32324219 99.86113281 -140.32324219 98.16113281 C-139.66324219 98.16113281 -139.00324219 98.16113281 -138.32324219 98.16113281 C-138.32324219 97.17113281 -138.32324219 96.18113281 -138.32324219 95.16113281 C-137.33324219 94.66613281 -137.33324219 94.66613281 -136.32324219 94.16113281 C-135.67110927 92.13650026 -135.67110927 92.13650026 -135.32324219 90.16113281 C-134.66324219 90.16113281 -134.00324219 90.16113281 -133.32324219 90.16113281 C-133.32324219 88.51113281 -133.32324219 86.86113281 -133.32324219 85.16113281 C-132.33324219 85.16113281 -131.34324219 85.16113281 -130.32324219 85.16113281 C-130.32324219 83.84113281 -130.32324219 82.52113281 -130.32324219 81.16113281 C-129.66324219 81.16113281 -129.00324219 81.16113281 -128.32324219 81.16113281 C-128.32324219 80.17113281 -128.32324219 79.18113281 -128.32324219 78.16113281 C-127.66324219 78.16113281 -127.00324219 78.16113281 -126.32324219 78.16113281 C-125.11696211 75.82899133 -124.15776839 73.66471143 -123.32324219 71.16113281 C-122.66324219 71.16113281 -122.00324219 71.16113281 -121.32324219 71.16113281 C-121.32324219 70.17113281 -121.32324219 69.18113281 -121.32324219 68.16113281 C-120.33324219 68.16113281 -119.34324219 68.16113281 -118.32324219 68.16113281 C-118.32324219 67.50113281 -118.32324219 66.84113281 -118.32324219 66.16113281 C-117.66324219 66.16113281 -117.00324219 66.16113281 -116.32324219 66.16113281 C-115.99324219 64.51113281 -115.66324219 62.86113281 -115.32324219 61.16113281 C-114.66324219 61.16113281 -114.00324219 61.16113281 -113.32324219 61.16113281 C-112.66324219 59.51113281 -112.00324219 57.86113281 -111.32324219 56.16113281 C-110.33324219 56.16113281 -109.34324219 56.16113281 -108.32324219 56.16113281 C-108.09636719 55.37738281 -107.86949219 54.59363281 -107.63574219 53.78613281 C-106.32324219 51.16113281 -106.32324219 51.16113281 -103.69824219 49.84863281 C-102.91449219 49.62175781 -102.13074219 49.39488281 -101.32324219 49.16113281 C-101.32324219 48.17113281 -101.32324219 47.18113281 -101.32324219 46.16113281 C-100.51886719 45.89300781 -99.71449219 45.62488281 -98.88574219 45.34863281 C-98.04011719 44.95675781 -97.19449219 44.56488281 -96.32324219 44.16113281 C-95.99324219 43.17113281 -95.66324219 42.18113281 -95.32324219 41.16113281 C-94.00324219 41.16113281 -92.68324219 41.16113281 -91.32324219 41.16113281 C-91.32324219 40.50113281 -91.32324219 39.84113281 -91.32324219 39.16113281 C-90.66324219 39.16113281 -90.00324219 39.16113281 -89.32324219 39.16113281 C-89.32324219 38.17113281 -89.32324219 37.18113281 -89.32324219 36.16113281 C-88.33324219 36.16113281 -87.34324219 36.16113281 -86.32324219 36.16113281 C-86.32324219 35.50113281 -86.32324219 34.84113281 -86.32324219 34.16113281 C-85.00324219 34.16113281 -83.68324219 34.16113281 -82.32324219 34.16113281 C-81.99324219 33.17113281 -81.66324219 32.18113281 -81.32324219 31.16113281 C-80.66324219 31.16113281 -80.00324219 31.16113281 -79.32324219 31.16113281 C-79.32324219 30.50113281 -79.32324219 29.84113281 -79.32324219 29.16113281 C-78.33324219 29.16113281 -77.34324219 29.16113281 -76.32324219 29.16113281 C-76.32324219 28.50113281 -76.32324219 27.84113281 -76.32324219 27.16113281 C-75.00324219 27.16113281 -73.68324219 27.16113281 -72.32324219 27.16113281 C-72.32324219 26.17113281 -72.32324219 25.18113281 -72.32324219 24.16113281 C-70.67324219 24.16113281 -69.02324219 24.16113281 -67.32324219 24.16113281 C-67.32324219 23.50113281 -67.32324219 22.84113281 -67.32324219 22.16113281 C-66.33324219 22.16113281 -65.34324219 22.16113281 -64.32324219 22.16113281 C-64.32324219 21.17113281 -64.32324219 20.18113281 -64.32324219 19.16113281 C-62.67324219 19.16113281 -61.02324219 19.16113281 -59.32324219 19.16113281 C-59.32324219 18.50113281 -59.32324219 17.84113281 -59.32324219 17.16113281 C-58.51886719 16.85175781 -57.71449219 16.54238281 -56.88574219 16.22363281 C-54.43243814 15.39777936 -54.43243814 15.39777936 -53.32324219 14.16113281 C-51.32365855 14.12032498 -49.32278965 14.11858925 -47.32324219 14.16113281 C-47.32324219 13.50113281 -47.32324219 12.84113281 -47.32324219 12.16113281 C-45.67324219 12.16113281 -44.02324219 12.16113281 -42.32324219 12.16113281 C-41.99324219 11.17113281 -41.66324219 10.18113281 -41.32324219 9.16113281 C-39.34324219 9.16113281 -37.36324219 9.16113281 -35.32324219 9.16113281 C-35.32324219 8.50113281 -35.32324219 7.84113281 -35.32324219 7.16113281 C-33.01324219 7.16113281 -30.70324219 7.16113281 -28.32324219 7.16113281 C-28.32324219 6.50113281 -28.32324219 5.84113281 -28.32324219 5.16113281 C-27.25783203 4.96197266 -27.25783203 4.96197266 -26.17089844 4.75878906 C-24.79224609 4.49388672 -24.79224609 4.49388672 -23.38574219 4.22363281 C-22.46921875 4.04960938 -21.55269531 3.87558594 -20.60839844 3.69628906 C-18.37034374 3.38398293 -18.37034374 3.38398293 -17.32324219 2.16113281 C-14.48351683 1.8376198 -11.64250482 1.64808991 -8.79199219 1.44238281 C-5.49608072 1.06689923 -3.65463743 0.02478786 0 0 Z M1.67675781 73.16113281 C1.34675781 74.81113281 1.01675781 76.46113281 0.67675781 78.16113281 C0.01675781 78.16113281 -0.64324219 78.16113281 -1.32324219 78.16113281 C-1.32324219 78.82113281 -1.32324219 79.48113281 -1.32324219 80.16113281 C-1.98324219 80.16113281 -2.64324219 80.16113281 -3.32324219 80.16113281 C-3.32324219 81.81113281 -3.32324219 83.46113281 -3.32324219 85.16113281 C-4.31324219 85.16113281 -5.30324219 85.16113281 -6.32324219 85.16113281 C-6.32324219 86.81113281 -6.32324219 88.46113281 -6.32324219 90.16113281 C-6.98324219 90.16113281 -7.64324219 90.16113281 -8.32324219 90.16113281 C-8.32324219 91.81113281 -8.32324219 93.46113281 -8.32324219 95.16113281 C-9.31324219 95.16113281 -10.30324219 95.16113281 -11.32324219 95.16113281 C-11.32324219 95.82113281 -11.32324219 96.48113281 -11.32324219 97.16113281 C-11.98324219 97.16113281 -12.64324219 97.16113281 -13.32324219 97.16113281 C-13.32324219 98.81113281 -13.32324219 100.46113281 -13.32324219 102.16113281 C-14.31324219 102.16113281 -15.30324219 102.16113281 -16.32324219 102.16113281 C-16.32324219 103.81113281 -16.32324219 105.46113281 -16.32324219 107.16113281 C-16.98324219 107.16113281 -17.64324219 107.16113281 -18.32324219 107.16113281 C-18.32324219 108.81113281 -18.32324219 110.46113281 -18.32324219 112.16113281 C-18.98324219 112.16113281 -19.64324219 112.16113281 -20.32324219 112.16113281 C-22.03114306 113.36861223 -22.03114306 113.36861223 -23.32324219 115.16113281 C-23.32324219 116.48113281 -23.32324219 117.80113281 -23.32324219 119.16113281 C-23.98324219 119.16113281 -24.64324219 119.16113281 -25.32324219 119.16113281 C-25.32324219 120.81113281 -25.32324219 122.46113281 -25.32324219 124.16113281 C-26.31324219 124.16113281 -27.30324219 124.16113281 -28.32324219 124.16113281 C-28.32324219 125.81113281 -28.32324219 127.46113281 -28.32324219 129.16113281 C-28.98324219 129.16113281 -29.64324219 129.16113281 -30.32324219 129.16113281 C-30.32324219 130.15113281 -30.32324219 131.14113281 -30.32324219 132.16113281 C-31.31324219 132.16113281 -32.30324219 132.16113281 -33.32324219 132.16113281 C-33.32324219 133.81113281 -33.32324219 135.46113281 -33.32324219 137.16113281 C-33.98324219 137.16113281 -34.64324219 137.16113281 -35.32324219 137.16113281 C-35.32324219 138.48113281 -35.32324219 139.80113281 -35.32324219 141.16113281 C-36.31324219 141.16113281 -37.30324219 141.16113281 -38.32324219 141.16113281 C-38.32324219 142.81113281 -38.32324219 144.46113281 -38.32324219 146.16113281 C-38.98324219 146.16113281 -39.64324219 146.16113281 -40.32324219 146.16113281 C-40.32324219 147.15113281 -40.32324219 148.14113281 -40.32324219 149.16113281 C-40.98324219 149.16113281 -41.64324219 149.16113281 -42.32324219 149.16113281 C-42.44699219 149.80050781 -42.57074219 150.43988281 -42.69824219 151.09863281 C-42.90449219 151.77925781 -43.11074219 152.45988281 -43.32324219 153.16113281 C-44.31324219 153.65613281 -44.31324219 153.65613281 -45.32324219 154.16113281 C-46.95058984 157.50623633 -47.32324219 159.34949116 -47.32324219 163.16113281 C-48.31324219 163.16113281 -49.30324219 163.16113281 -50.32324219 163.16113281 C-50.32324219 164.15113281 -50.32324219 165.14113281 -50.32324219 166.16113281 C-50.98324219 166.16113281 -51.64324219 166.16113281 -52.32324219 166.16113281 C-52.32324219 167.81113281 -52.32324219 169.46113281 -52.32324219 171.16113281 C-53.31324219 171.16113281 -54.30324219 171.16113281 -55.32324219 171.16113281 C-55.32324219 172.81113281 -55.32324219 174.46113281 -55.32324219 176.16113281 C-55.98324219 176.16113281 -56.64324219 176.16113281 -57.32324219 176.16113281 C-57.44699219 176.80050781 -57.57074219 177.43988281 -57.69824219 178.09863281 C-57.90449219 178.77925781 -58.11074219 179.45988281 -58.32324219 180.16113281 C-59.31324219 180.65613281 -59.31324219 180.65613281 -60.32324219 181.16113281 C-60.32324219 181.82113281 -60.32324219 182.48113281 -60.32324219 183.16113281 C-60.98324219 183.16113281 -61.64324219 183.16113281 -62.32324219 183.16113281 C-62.32324219 184.81113281 -62.32324219 186.46113281 -62.32324219 188.16113281 C-62.98324219 188.16113281 -63.64324219 188.16113281 -64.32324219 188.16113281 C-64.65324219 189.81113281 -64.98324219 191.46113281 -65.32324219 193.16113281 C-65.98324219 193.16113281 -66.64324219 193.16113281 -67.32324219 193.16113281 C-67.32324219 194.48113281 -67.32324219 195.80113281 -67.32324219 197.16113281 C-67.98324219 197.16113281 -68.64324219 197.16113281 -69.32324219 197.16113281 C-69.32324219 198.15113281 -69.32324219 199.14113281 -69.32324219 200.16113281 C-70.31324219 200.16113281 -71.30324219 200.16113281 -72.32324219 200.16113281 C-72.32324219 201.81113281 -72.32324219 203.46113281 -72.32324219 205.16113281 C-56.15324219 205.16113281 -39.98324219 205.16113281 -23.32324219 205.16113281 C-23.32324219 206.15113281 -23.32324219 207.14113281 -23.32324219 208.16113281 C-22.66324219 208.49113281 -22.00324219 208.82113281 -21.32324219 209.16113281 C-21.32324219 209.82113281 -21.32324219 210.48113281 -21.32324219 211.16113281 C-21.98324219 211.49113281 -22.64324219 211.82113281 -23.32324219 212.16113281 C-23.32324219 216.12113281 -23.32324219 220.08113281 -23.32324219 224.16113281 C-23.98324219 224.16113281 -24.64324219 224.16113281 -25.32324219 224.16113281 C-25.32324219 226.80113281 -25.32324219 229.44113281 -25.32324219 232.16113281 C-26.31324219 232.16113281 -27.30324219 232.16113281 -28.32324219 232.16113281 C-28.32324219 236.12113281 -28.32324219 240.08113281 -28.32324219 244.16113281 C-28.98324219 244.16113281 -29.64324219 244.16113281 -30.32324219 244.16113281 C-30.32324219 246.47113281 -30.32324219 248.78113281 -30.32324219 251.16113281 C-31.31324219 251.16113281 -32.30324219 251.16113281 -33.32324219 251.16113281 C-33.32324219 255.45113281 -33.32324219 259.74113281 -33.32324219 264.16113281 C-33.98324219 264.16113281 -34.64324219 264.16113281 -35.32324219 264.16113281 C-35.32324219 266.47113281 -35.32324219 268.78113281 -35.32324219 271.16113281 C-36.31324219 271.16113281 -37.30324219 271.16113281 -38.32324219 271.16113281 C-38.32324219 275.12113281 -38.32324219 279.08113281 -38.32324219 283.16113281 C-38.98324219 283.16113281 -39.64324219 283.16113281 -40.32324219 283.16113281 C-40.32324219 285.80113281 -40.32324219 288.44113281 -40.32324219 291.16113281 C-40.98324219 291.16113281 -41.64324219 291.16113281 -42.32324219 291.16113281 C-42.65324219 295.12113281 -42.98324219 299.08113281 -43.32324219 303.16113281 C-43.98324219 303.16113281 -44.64324219 303.16113281 -45.32324219 303.16113281 C-45.32324219 304.81113281 -45.32324219 306.46113281 -45.32324219 308.16113281 C-44.33324219 308.16113281 -43.34324219 308.16113281 -42.32324219 308.16113281 C-41.66324219 306.51113281 -41.00324219 304.86113281 -40.32324219 303.16113281 C-39.33324219 303.16113281 -38.34324219 303.16113281 -37.32324219 303.16113281 C-37.32324219 302.50113281 -37.32324219 301.84113281 -37.32324219 301.16113281 C-36.66324219 301.16113281 -36.00324219 301.16113281 -35.32324219 301.16113281 C-33.65657552 299.82779948 -33.65657552 299.82779948 -32.32324219 298.16113281 C-32.32324219 297.50113281 -32.32324219 296.84113281 -32.32324219 296.16113281 C-29.99110071 294.95485274 -27.8268208 293.99565902 -25.32324219 293.16113281 C-25.32324219 292.50113281 -25.32324219 291.84113281 -25.32324219 291.16113281 C-24.66324219 291.16113281 -24.00324219 291.16113281 -23.32324219 291.16113281 C-23.32324219 290.17113281 -23.32324219 289.18113281 -23.32324219 288.16113281 C-22.33324219 288.16113281 -21.34324219 288.16113281 -20.32324219 288.16113281 C-20.32324219 287.50113281 -20.32324219 286.84113281 -20.32324219 286.16113281 C-19.66324219 286.16113281 -19.00324219 286.16113281 -18.32324219 286.16113281 C-18.32324219 285.17113281 -18.32324219 284.18113281 -18.32324219 283.16113281 C-15.84824219 282.17113281 -15.84824219 282.17113281 -13.32324219 281.16113281 C-13.32324219 280.17113281 -13.32324219 279.18113281 -13.32324219 278.16113281 C-12.66324219 278.16113281 -12.00324219 278.16113281 -11.32324219 278.16113281 C-11.32324219 277.50113281 -11.32324219 276.84113281 -11.32324219 276.16113281 C-10.33324219 276.16113281 -9.34324219 276.16113281 -8.32324219 276.16113281 C-8.32324219 275.50113281 -8.32324219 274.84113281 -8.32324219 274.16113281 C-7.66324219 274.16113281 -7.00324219 274.16113281 -6.32324219 274.16113281 C-6.32324219 273.17113281 -6.32324219 272.18113281 -6.32324219 271.16113281 C-5.33324219 271.16113281 -4.34324219 271.16113281 -3.32324219 271.16113281 C-3.32324219 270.50113281 -3.32324219 269.84113281 -3.32324219 269.16113281 C-2.66324219 269.16113281 -2.00324219 269.16113281 -1.32324219 269.16113281 C-1.32324219 268.17113281 -1.32324219 267.18113281 -1.32324219 266.16113281 C-0.33324219 266.16113281 0.65675781 266.16113281 1.67675781 266.16113281 C1.67675781 265.50113281 1.67675781 264.84113281 1.67675781 264.16113281 C2.33675781 264.16113281 2.99675781 264.16113281 3.67675781 264.16113281 C3.67675781 263.17113281 3.67675781 262.18113281 3.67675781 261.16113281 C4.66675781 261.16113281 5.65675781 261.16113281 6.67675781 261.16113281 C6.67675781 260.50113281 6.67675781 259.84113281 6.67675781 259.16113281 C7.33675781 259.16113281 7.99675781 259.16113281 8.67675781 259.16113281 C9.33675781 257.51113281 9.99675781 255.86113281 10.67675781 254.16113281 C11.66675781 254.16113281 12.65675781 254.16113281 13.67675781 254.16113281 C13.67675781 253.50113281 13.67675781 252.84113281 13.67675781 252.16113281 C14.33675781 252.16113281 14.99675781 252.16113281 15.67675781 252.16113281 C15.67675781 251.17113281 15.67675781 250.18113281 15.67675781 249.16113281 C16.66675781 249.16113281 17.65675781 249.16113281 18.67675781 249.16113281 C18.67675781 248.50113281 18.67675781 247.84113281 18.67675781 247.16113281 C19.33675781 247.16113281 19.99675781 247.16113281 20.67675781 247.16113281 C20.67675781 246.17113281 20.67675781 245.18113281 20.67675781 244.16113281 C22.32675781 244.16113281 23.97675781 244.16113281 25.67675781 244.16113281 C26.00675781 242.84113281 26.33675781 241.52113281 26.67675781 240.16113281 C27.99675781 239.83113281 29.31675781 239.50113281 30.67675781 239.16113281 C30.67675781 237.84113281 30.67675781 236.52113281 30.67675781 235.16113281 C32.32675781 234.83113281 33.97675781 234.50113281 35.67675781 234.16113281 C35.67675781 232.84113281 35.67675781 231.52113281 35.67675781 230.16113281 C37.32675781 230.16113281 38.97675781 230.16113281 40.67675781 230.16113281 C40.67675781 229.17113281 40.67675781 228.18113281 40.67675781 227.16113281 C41.33675781 227.16113281 41.99675781 227.16113281 42.67675781 227.16113281 C42.67675781 226.50113281 42.67675781 225.84113281 42.67675781 225.16113281 C43.66675781 225.16113281 44.65675781 225.16113281 45.67675781 225.16113281 C45.67675781 224.17113281 45.67675781 223.18113281 45.67675781 222.16113281 C46.33675781 222.16113281 46.99675781 222.16113281 47.67675781 222.16113281 C47.67675781 221.50113281 47.67675781 220.84113281 47.67675781 220.16113281 C48.66675781 220.16113281 49.65675781 220.16113281 50.67675781 220.16113281 C50.67675781 219.17113281 50.67675781 218.18113281 50.67675781 217.16113281 C51.33675781 217.16113281 51.99675781 217.16113281 52.67675781 217.16113281 C52.67675781 216.50113281 52.67675781 215.84113281 52.67675781 215.16113281 C53.33675781 215.16113281 53.99675781 215.16113281 54.67675781 215.16113281 C56.34342448 213.82779948 56.34342448 213.82779948 57.67675781 212.16113281 C57.67675781 211.50113281 57.67675781 210.84113281 57.67675781 210.16113281 C58.33675781 210.16113281 58.99675781 210.16113281 59.67675781 210.16113281 C59.67675781 209.50113281 59.67675781 208.84113281 59.67675781 208.16113281 C60.66675781 208.16113281 61.65675781 208.16113281 62.67675781 208.16113281 C62.67675781 207.17113281 62.67675781 206.18113281 62.67675781 205.16113281 C63.33675781 205.16113281 63.99675781 205.16113281 64.67675781 205.16113281 C64.67675781 204.50113281 64.67675781 203.84113281 64.67675781 203.16113281 C65.66675781 203.16113281 66.65675781 203.16113281 67.67675781 203.16113281 C67.67675781 202.17113281 67.67675781 201.18113281 67.67675781 200.16113281 C68.33675781 200.16113281 68.99675781 200.16113281 69.67675781 200.16113281 C69.67675781 199.50113281 69.67675781 198.84113281 69.67675781 198.16113281 C70.66675781 198.16113281 71.65675781 198.16113281 72.67675781 198.16113281 C72.67675781 197.17113281 72.67675781 196.18113281 72.67675781 195.16113281 C73.33675781 195.16113281 73.99675781 195.16113281 74.67675781 195.16113281 C74.67675781 194.50113281 74.67675781 193.84113281 74.67675781 193.16113281 C75.33675781 193.16113281 75.99675781 193.16113281 76.67675781 193.16113281 C78.34342448 191.82779948 78.34342448 191.82779948 79.67675781 190.16113281 C79.67675781 189.50113281 79.67675781 188.84113281 79.67675781 188.16113281 C80.33675781 188.16113281 80.99675781 188.16113281 81.67675781 188.16113281 C81.67675781 187.50113281 81.67675781 186.84113281 81.67675781 186.16113281 C82.66675781 186.16113281 83.65675781 186.16113281 84.67675781 186.16113281 C84.67675781 185.17113281 84.67675781 184.18113281 84.67675781 183.16113281 C85.33675781 183.16113281 85.99675781 183.16113281 86.67675781 183.16113281 C86.67675781 182.50113281 86.67675781 181.84113281 86.67675781 181.16113281 C87.66675781 181.16113281 88.65675781 181.16113281 89.67675781 181.16113281 C89.67675781 180.17113281 89.67675781 179.18113281 89.67675781 178.16113281 C90.33675781 178.16113281 90.99675781 178.16113281 91.67675781 178.16113281 C91.67675781 177.50113281 91.67675781 176.84113281 91.67675781 176.16113281 C92.66675781 176.16113281 93.65675781 176.16113281 94.67675781 176.16113281 C94.67675781 175.17113281 94.67675781 174.18113281 94.67675781 173.16113281 C95.33675781 173.16113281 95.99675781 173.16113281 96.67675781 173.16113281 C96.67675781 172.50113281 96.67675781 171.84113281 96.67675781 171.16113281 C97.66675781 171.16113281 98.65675781 171.16113281 99.67675781 171.16113281 C99.67675781 170.50113281 99.67675781 169.84113281 99.67675781 169.16113281 C100.33675781 169.16113281 100.99675781 169.16113281 101.67675781 169.16113281 C102.00675781 168.50113281 102.33675781 167.84113281 102.67675781 167.16113281 C103.50175781 166.68675781 104.32675781 166.21238281 105.17675781 165.72363281 C107.96831264 164.3479374 107.96831264 164.3479374 108.67675781 161.16113281 C109.66675781 161.16113281 110.65675781 161.16113281 111.67675781 161.16113281 C111.67675781 160.50113281 111.67675781 159.84113281 111.67675781 159.16113281 C112.33675781 159.16113281 112.99675781 159.16113281 113.67675781 159.16113281 C113.67675781 158.17113281 113.67675781 157.18113281 113.67675781 156.16113281 C114.66675781 156.16113281 115.65675781 156.16113281 116.67675781 156.16113281 C116.67675781 155.50113281 116.67675781 154.84113281 116.67675781 154.16113281 C117.33675781 154.16113281 117.99675781 154.16113281 118.67675781 154.16113281 C118.67675781 153.17113281 118.67675781 152.18113281 118.67675781 151.16113281 C99.20675781 151.16113281 79.73675781 151.16113281 59.67675781 151.16113281 C59.67675781 150.50113281 59.67675781 149.84113281 59.67675781 149.16113281 C59.01675781 149.16113281 58.35675781 149.16113281 57.67675781 149.16113281 C57.67675781 146.85113281 57.67675781 144.54113281 57.67675781 142.16113281 C58.33675781 142.16113281 58.99675781 142.16113281 59.67675781 142.16113281 C59.67675781 141.17113281 59.67675781 140.18113281 59.67675781 139.16113281 C60.66675781 139.16113281 61.65675781 139.16113281 62.67675781 139.16113281 C62.67675781 138.50113281 62.67675781 137.84113281 62.67675781 137.16113281 C63.33675781 137.16113281 63.99675781 137.16113281 64.67675781 137.16113281 C64.67675781 136.17113281 64.67675781 135.18113281 64.67675781 134.16113281 C65.66675781 133.83113281 66.65675781 133.50113281 67.67675781 133.16113281 C67.67675781 131.84113281 67.67675781 130.52113281 67.67675781 129.16113281 C68.33675781 129.16113281 68.99675781 129.16113281 69.67675781 129.16113281 C69.67675781 128.50113281 69.67675781 127.84113281 69.67675781 127.16113281 C70.66675781 127.16113281 71.65675781 127.16113281 72.67675781 127.16113281 C72.67675781 126.17113281 72.67675781 125.18113281 72.67675781 124.16113281 C73.33675781 124.16113281 73.99675781 124.16113281 74.67675781 124.16113281 C74.67675781 122.84113281 74.67675781 121.52113281 74.67675781 120.16113281 C75.33675781 120.16113281 75.99675781 120.16113281 76.67675781 120.16113281 C76.67675781 119.17113281 76.67675781 118.18113281 76.67675781 117.16113281 C77.66675781 117.16113281 78.65675781 117.16113281 79.67675781 117.16113281 C79.67675781 116.50113281 79.67675781 115.84113281 79.67675781 115.16113281 C80.33675781 115.16113281 80.99675781 115.16113281 81.67675781 115.16113281 C82.00675781 113.51113281 82.33675781 111.86113281 82.67675781 110.16113281 C83.33675781 110.16113281 83.99675781 110.16113281 84.67675781 110.16113281 C84.67675781 109.17113281 84.67675781 108.18113281 84.67675781 107.16113281 C85.33675781 107.16113281 85.99675781 107.16113281 86.67675781 107.16113281 C86.67675781 106.50113281 86.67675781 105.84113281 86.67675781 105.16113281 C87.66675781 105.16113281 88.65675781 105.16113281 89.67675781 105.16113281 C89.67675781 104.17113281 89.67675781 103.18113281 89.67675781 102.16113281 C90.33675781 102.16113281 90.99675781 102.16113281 91.67675781 102.16113281 C91.86238281 101.20207031 91.86238281 101.20207031 92.05175781 100.22363281 C92.25800781 99.54300781 92.46425781 98.86238281 92.67675781 98.16113281 C93.66675781 97.66613281 93.66675781 97.66613281 94.67675781 97.16113281 C94.67675781 96.50113281 94.67675781 95.84113281 94.67675781 95.16113281 C95.33675781 95.16113281 95.99675781 95.16113281 96.67675781 95.16113281 C96.67675781 94.50113281 96.67675781 93.84113281 96.67675781 93.16113281 C97.33675781 93.16113281 97.99675781 93.16113281 98.67675781 93.16113281 C99.00675781 91.51113281 99.33675781 89.86113281 99.67675781 88.16113281 C100.33675781 88.16113281 100.99675781 88.16113281 101.67675781 88.16113281 C101.67675781 87.17113281 101.67675781 86.18113281 101.67675781 85.16113281 C102.33675781 85.16113281 102.99675781 85.16113281 103.67675781 85.16113281 C103.67675781 84.50113281 103.67675781 83.84113281 103.67675781 83.16113281 C104.66675781 83.16113281 105.65675781 83.16113281 106.67675781 83.16113281 C107.13050781 82.02675781 107.58425781 80.89238281 108.05175781 79.72363281 C109.67675781 76.16113281 109.67675781 76.16113281 111.67675781 75.16113281 C111.67675781 74.50113281 111.67675781 73.84113281 111.67675781 73.16113281 C75.37675781 73.16113281 39.07675781 73.16113281 1.67675781 73.16113281 Z " fill="#1AA6E9" transform="translate(225.3232421875,67.8388671875)"/>
<path d="M0 0 C0.99 0 1.98 0 3 0 C2.67 1.32 2.34 2.64 2 4 C0.68 4.33 -0.64 4.66 -2 5 C-2 4.01 -2 3.02 -2 2 C-1.34 2 -0.68 2 0 2 C0 1.34 0 0.68 0 0 Z M-5 5 C-4.01 5 -3.02 5 -2 5 C-2.66 7.31 -3.32 9.62 -4 12 C15.14 12.33 34.28 12.66 54 13 C54 15.31 54 17.62 54 20 C53.34 20 52.68 20 52 20 C52 20.66 52 21.32 52 22 C51.34 22 50.68 22 50 22 C49.505 23.485 49.505 23.485 49 25 C48.34 25 47.68 25 47 25 C47 25.66 47 26.32 47 27 C46.34 27 45.68 27 45 27 C45 27.66 45 28.32 45 29 C44.01 29 43.02 29 42 29 C42 29.99 42 30.98 42 32 C41.34 32 40.68 32 40 32 C40 32.66 40 33.32 40 34 C39.01 34 38.02 34 37 34 C37 34.66 37 35.32 37 36 C36.01 36 35.02 36 34 36 C34 36.99 34 37.98 34 39 C33.34 39 32.68 39 32 39 C32 39.99 32 40.98 32 42 C31.34 42 30.68 42 30 42 C30 42.66 30 43.32 30 44 C29.01 44 28.02 44 27 44 C27 44.66 27 45.32 27 46 C26.34 46 25.68 46 25 46 C25 46.99 25 47.98 25 49 C23.35 49 21.7 49 20 49 C19.67 50.65 19.34 52.3 19 54 C17.35 53.67 15.7 53.34 14 53 C14 52.34 14 51.68 14 51 C14.99 51 15.98 51 17 51 C17 50.01 17 49.02 17 48 C17.66 48 18.32 48 19 48 C19 47.34 19 46.68 19 46 C19.99 46 20.98 46 22 46 C22 45.01 22 44.02 22 43 C22.66 43 23.32 43 24 43 C24 42.34 24 41.68 24 41 C24.99 41 25.98 41 27 41 C27 40.01 27 39.02 27 38 C27.66 38 28.32 38 29 38 C29 37.34 29 36.68 29 36 C29.99 36 30.98 36 32 36 C32 35.34 32 34.68 32 34 C32.66 34 33.32 34 34 34 C34.495 32.515 34.495 32.515 35 31 C36.64821244 29.96986723 38.31503702 28.96885372 40 28 C40.33 27.34 40.66 26.68 41 26 C41.99 26 42.98 26 44 26 C44 25.34 44 24.68 44 24 C44.66 24 45.32 24 46 24 C46 23.01 46 22.02 46 21 C46.99 21 47.98 21 49 21 C49 20.34 49 19.68 49 19 C49.66 19 50.32 19 51 19 C51 18.01 51 17.02 51 16 C31.53 16 12.06 16 -8 16 C-8 15.34 -8 14.68 -8 14 C-8.66 14 -9.32 14 -10 14 C-10 11.69 -10 9.38 -10 7 C-8.35 7 -6.7 7 -5 7 C-5 6.34 -5 5.68 -5 5 Z " fill="#26A1DE" transform="translate(293,203)"/>
<path d="M0 0 C37.29 0 74.58 0 113 0 C113 1.98 113 3.96 113 6 C112.34 6 111.68 6 111 6 C111 7.65 111 9.3 111 11 C110.34 11 109.68 11 109 11 C109 11.99 109 12.98 109 14 C108.34 14 107.68 14 107 14 C107 14.66 107 15.32 107 16 C106.01 16 105.02 16 104 16 C104 16.66 104 17.32 104 18 C103.01 18 102.02 18 101 18 C101 17.01 101 16.02 101 15 C101.66 15 102.32 15 103 15 C103 14.34 103 13.68 103 13 C103.99 13 104.98 13 106 13 C106.185625 12.13375 106.185625 12.13375 106.375 11.25 C107.00648824 8.97664233 107.88858191 7.0746471 109 5 C109.66 5 110.32 5 111 5 C111 4.34 111 3.68 111 3 C74.7 3 38.4 3 1 3 C0.67 4.65 0.34 6.3 0 8 C-0.66 8 -1.32 8 -2 8 C-2 8.66 -2 9.32 -2 10 C-2.99 10 -3.98 10 -5 10 C-5 9.01 -5 8.02 -5 7 C-4.01 7 -3.02 7 -2 7 C-2 5.68 -2 4.36 -2 3 C-1.34 3 -0.68 3 0 3 C0 2.01 0 1.02 0 0 Z " fill="#2D9DD3" transform="translate(226,138)"/>
<path d="M0 0 C37.62 0 75.24 0 114 0 C113.67 0.99 113.34 1.98 113 3 C76.04 3 39.08 3 1 3 C0.67 2.01 0.34 1.02 0 0 Z " fill="#059DE7" transform="translate(226,135)"/>
<path d="M0 0 C17.82 0 35.64 0 54 0 C54 1.32 54 2.64 54 4 C52.35 4.33 50.7 4.66 49 5 C49 4.34 49 3.68 49 3 C32.83 3 16.66 3 0 3 C0 2.01 0 1.02 0 0 Z " fill="#069CE5" transform="translate(150,276)"/>
<path d="M0 0 C0.99 0 1.98 0 3 0 C3 0.99 3 1.98 3 3 C2.34 3 1.68 3 1 3 C1 3.99 1 4.98 1 6 C0.34 6 -0.32 6 -1 6 C-1 6.66 -1 7.32 -1 8 C-1.99 8 -2.98 8 -4 8 C-4 8.99 -4 9.98 -4 11 C-4.66 11 -5.32 11 -6 11 C-6 11.66 -6 12.32 -6 13 C-6.99 13 -7.98 13 -9 13 C-9 13.66 -9 14.32 -9 15 C-9.99 15 -10.98 15 -12 15 C-12 15.99 -12 16.98 -12 18 C-12.66 18 -13.32 18 -14 18 C-14 18.99 -14 19.98 -14 21 C-14.66 21 -15.32 21 -16 21 C-16 21.66 -16 22.32 -16 23 C-16.99 23 -17.98 23 -19 23 C-19 23.66 -19 24.32 -19 25 C-19.66 25 -20.32 25 -21 25 C-21 25.99 -21 26.98 -21 28 C-22.65 28 -24.3 28 -26 28 C-26.33 29.65 -26.66 31.3 -27 33 C-28.65 32.67 -30.3 32.34 -32 32 C-32 31.34 -32 30.68 -32 30 C-31.01 30 -30.02 30 -29 30 C-29 29.01 -29 28.02 -29 27 C-28.34 27 -27.68 27 -27 27 C-27 26.34 -27 25.68 -27 25 C-26.01 25 -25.02 25 -24 25 C-24 24.01 -24 23.02 -24 22 C-23.34 22 -22.68 22 -22 22 C-22 21.34 -22 20.68 -22 20 C-21.01 20 -20.02 20 -19 20 C-19 19.01 -19 18.02 -19 17 C-18.34 17 -17.68 17 -17 17 C-17 16.34 -17 15.68 -17 15 C-16.01 15 -15.02 15 -14 15 C-14 14.34 -14 13.68 -14 13 C-13.34 13 -12.68 13 -12 13 C-11.67 12.01 -11.34 11.02 -11 10 C-9.35178756 8.96986723 -7.68496298 7.96885372 -6 7 C-5.67 6.34 -5.34 5.68 -5 5 C-4.01 5 -3.02 5 -2 5 C-2 4.34 -2 3.68 -2 3 C-1.34 3 -0.68 3 0 3 C0 2.01 0 1.02 0 0 Z " fill="#37A4E0" transform="translate(339,224)"/>
<path d="M0 0 C2.17666626 -0.36076355 2.17666626 -0.36076355 4.90869141 -0.34057617 C6.44005234 -0.34023628 6.44005234 -0.34023628 8.00234985 -0.33988953 C9.10759003 -0.32440567 10.2128302 -0.30892181 11.3515625 -0.29296875 C12.4807309 -0.28872391 13.60989929 -0.28447906 14.77328491 -0.28010559 C18.39076273 -0.26327132 22.00768969 -0.22560975 25.625 -0.1875 C28.07290864 -0.17245934 30.52082598 -0.15876986 32.96875 -0.14648438 C38.9793556 -0.11335227 44.98963846 -0.06310579 51 0 C50.67 0.99 50.34 1.98 50 3 C32.84 3 15.68 3 -2 3 C-1.34 2.01 -0.68 1.02 0 0 Z " fill="#06A3E8" transform="translate(292,213)"/>
<path d="M0 0 C1.32 0 2.64 0 4 0 C4 0.99 4 1.98 4 3 C3.01 3 2.02 3 1 3 C1 3.99 1 4.98 1 6 C-1.31 6 -3.62 6 -6 6 C-6 6.99 -6 7.98 -6 9 C-7.32 9 -8.64 9 -10 9 C-10.33 9.99 -10.66 10.98 -11 12 C-13.97 11.505 -13.97 11.505 -17 11 C-17 11.66 -17 12.32 -17 13 C-17.99 13 -18.98 13 -20 13 C-20 13.99 -20 14.98 -20 16 C-21.65 16 -23.3 16 -25 16 C-25 16.66 -25 17.32 -25 18 C-26.65 18 -28.3 18 -30 18 C-30 18.66 -30 19.32 -30 20 C-31.65 20 -33.3 20 -35 20 C-35 19.34 -35 18.68 -35 18 C-33.68 18 -32.36 18 -31 18 C-31 17.01 -31 16.02 -31 15 C-29.35 15 -27.7 15 -26 15 C-26 14.34 -26 13.68 -26 13 C-25.01 13 -24.02 13 -23 13 C-23 12.01 -23 11.02 -23 10 C-21.35 10 -19.7 10 -18 10 C-18 9.34 -18 8.68 -18 8 C-17.195625 7.690625 -16.39125 7.38125 -15.5625 7.0625 C-13.10919595 6.23664655 -13.10919595 6.23664655 -12 5 C-10.00041636 4.95919217 -7.99954746 4.95745644 -6 5 C-6 4.34 -6 3.68 -6 3 C-4.35 3 -2.7 3 -1 3 C-0.67 2.01 -0.34 1.02 0 0 Z " fill="#30A9E6" transform="translate(184,77)"/>
<path d="M0 0 C15.84 0 31.68 0 48 0 C48 0.99 48 1.98 48 3 C31.83 3 15.66 3 -1 3 C-0.67 2.01 -0.34 1.02 0 0 Z " fill="#299DD6" transform="translate(154,273)"/>
<path d="M0 0 C0.66 0 1.32 0 2 0 C2.125 7.75 2.125 7.75 1 10 C0.34 10 -0.32 10 -1 10 C-1 11.65 -1 13.3 -1 15 C-0.01 15 0.98 15 2 15 C2.66 13.35 3.32 11.7 4 10 C4.99 10 5.98 10 7 10 C7 9.34 7 8.68 7 8 C7.66 8 8.32 8 9 8 C9.33 7.01 9.66 6.02 10 5 C10.66 5 11.32 5 12 5 C12 4.34 12 3.68 12 3 C12.66 3 13.32 3 14 3 C14 4.65 14 6.3 14 8 C13.34 8 12.68 8 12 8 C12 8.66 12 9.32 12 10 C11.01 10 10.02 10 9 10 C9 10.99 9 11.98 9 13 C7.35 13 5.7 13 4 13 C3.67 14.65 3.34 16.3 3 18 C1.68 18 0.36 18 -1 18 C-1 18.66 -1 19.32 -1 20 C-1.66 20 -2.32 20 -3 20 C-3.8723412 17.00519083 -4.10829766 14.36424089 -4.0625 11.25 C-4.05347656 10.45078125 -4.04445312 9.6515625 -4.03515625 8.828125 C-4.02355469 8.22484375 -4.01195312 7.6215625 -4 7 C-3.01 7 -2.02 7 -1 7 C-1.020625 6.030625 -1.04125 5.06125 -1.0625 4.0625 C-1 1 -1 1 0 0 Z " fill="#2CA2DF" transform="translate(181,361)"/>
<path d="M0 0 C3.9374352 -0.05893685 7.87475427 -0.09390669 11.8125 -0.125 C13.46282227 -0.15013672 13.46282227 -0.15013672 15.14648438 -0.17578125 C22.32536862 -0.21813455 28.99126695 0.43741455 36 2 C36 2.99 36 3.98 36 5 C32.04 5 28.08 5 24 5 C24 4.01 24 3.02 24 2 C22.15535156 2.2165625 22.15535156 2.2165625 20.2734375 2.4375 C18.64064536 2.62517726 17.00783171 2.81266737 15.375 3 C14.56675781 3.09539062 13.75851562 3.19078125 12.92578125 3.2890625 C8.59026261 3.78253617 4.37262689 4.11320717 0 4 C0 2.68 0 1.36 0 0 Z " fill="#37ADEA" transform="translate(254,68)"/>
<path d="M0 0 C1.32 0 2.64 0 4 0 C3.34 1.65 2.68 3.3 2 5 C1.34 5 0.68 5 0 5 C0 5.66 0 6.32 0 7 C-0.66 7 -1.32 7 -2 7 C-2.33 7.99 -2.66 8.98 -3 10 C-3.66 10 -4.32 10 -5 10 C-5 10.66 -5 11.32 -5 12 C-5.66 12 -6.32 12 -7 12 C-7 12.66 -7 13.32 -7 14 C-8.6796875 15.2890625 -8.6796875 15.2890625 -10.875 16.625 C-11.59429687 17.07101562 -12.31359375 17.51703125 -13.0546875 17.9765625 C-15 19 -15 19 -17 19 C-17 19.99 -17 20.98 -17 22 C-18.65 22.66 -20.3 23.32 -22 24 C-22 23.34 -22 22.68 -22 22 C-21.34 22 -20.68 22 -20 22 C-20 20.68 -20 19.36 -20 18 C-19.34 18 -18.68 18 -18 18 C-18 17.34 -18 16.68 -18 16 C-17.01 16 -16.02 16 -15 16 C-15 15.34 -15 14.68 -15 14 C-14.34 14 -13.68 14 -13 14 C-13 13.01 -13 12.02 -13 11 C-9.91190305 9.23537317 -8.76687864 9 -5 9 C-5 8.34 -5 7.68 -5 7 C-4.34 7 -3.68 7 -3 7 C-2.67 6.01 -2.34 5.02 -2 4 C-1.34 4 -0.68 4 0 4 C0 2.68 0 1.36 0 0 Z " fill="#39A7E0" transform="translate(383,371)"/>
<path d="M0 0 C0.99 0 1.98 0 3 0 C2.58565093 4.83407252 0.62206046 6.89537674 -3 10 C-3.99 10.33 -4.98 10.66 -6 11 C-6.33 11.66 -6.66 12.32 -7 13 C-7.33 13.66 -7.66 14.32 -8 15 C-8.99 15.33 -9.98 15.66 -11 16 C-11 16.66 -11 17.32 -11 18 C-11.99 18 -12.98 18 -14 18 C-14 18.66 -14 19.32 -14 20 C-14.66 20 -15.32 20 -16 20 C-16 20.66 -16 21.32 -16 22 C-16.99 22 -17.98 22 -19 22 C-19 21.01 -19 20.02 -19 19 C-18.34 19 -17.68 19 -17 19 C-17 18.34 -17 17.68 -17 17 C-16.34 17 -15.68 17 -15 17 C-14.67 16.01 -14.34 15.02 -14 14 C-13.34 14 -12.68 14 -12 14 C-12 13.34 -12 12.68 -12 12 C-11.34 12 -10.68 12 -10 12 C-10 11.34 -10 10.68 -10 10 C-9.01 10 -8.02 10 -7 10 C-7 9.01 -7 8.02 -7 7 C-6.34 7 -5.68 7 -5 7 C-5 6.34 -5 5.68 -5 5 C-4.01 5 -3.02 5 -2 5 C-2 4.01 -2 3.02 -2 2 C-1.34 2 -0.68 2 0 2 C0 1.34 0 0.68 0 0 Z " fill="#23A0DE" transform="translate(295,266)"/>
<path d="M0 0 C1.00023193 0.00523682 2.00046387 0.01047363 3.03100586 0.01586914 C4.1105957 0.0190918 5.19018555 0.02231445 6.30249023 0.02563477 C8.00695312 0.03820312 8.00695312 0.03820312 9.74584961 0.05102539 C11.45611328 0.05779297 11.45611328 0.05779297 13.20092773 0.06469727 C16.02845312 0.07652792 18.85587601 0.09301129 21.68334961 0.11352539 C21.68334961 1.10352539 21.68334961 2.09352539 21.68334961 3.11352539 C14.75334961 3.11352539 7.82334961 3.11352539 0.68334961 3.11352539 C0.35334961 3.77352539 0.02334961 4.43352539 -0.31665039 5.11352539 C-5.26665039 5.11352539 -10.21665039 5.11352539 -15.31665039 5.11352539 C-14.98665039 4.12352539 -14.65665039 3.13352539 -14.31665039 2.11352539 C-13.53418945 2.05293945 -12.75172852 1.99235352 -11.94555664 1.92993164 C-10.93364258 1.84614258 -9.92172852 1.76235352 -8.87915039 1.67602539 C-7.86981445 1.59481445 -6.86047852 1.51360352 -5.82055664 1.42993164 C-3.05609439 1.08060022 -2.72962202 0.1337627 0 0 Z " fill="#34A9E4" transform="translate(222.316650390625,67.886474609375)"/>
<path d="M0 0 C1.79244141 0.01740234 1.79244141 0.01740234 3.62109375 0.03515625 C5.41740234 0.04869141 5.41740234 0.04869141 7.25 0.0625 C8.17683594 0.07410156 9.10367188 0.08570313 10.05859375 0.09765625 C10.05859375 0.75765625 10.05859375 1.41765625 10.05859375 2.09765625 C2.84199709 5.70595458 -7.73576559 4.21690002 -15.56640625 4.16015625 C-17.35884766 4.15338867 -17.35884766 4.15338867 -19.1875 4.14648438 C-22.10552272 4.13481228 -25.02343662 4.11843951 -27.94140625 4.09765625 C-27.28140625 3.10765625 -26.62140625 2.11765625 -25.94140625 1.09765625 C-23.71069336 0.77294922 -23.71069336 0.77294922 -20.96875 0.83984375 C-19.98712891 0.85402344 -19.00550781 0.86820312 -17.99414062 0.8828125 C-16.96611328 0.91246094 -15.93808594 0.94210937 -14.87890625 0.97265625 C-12.84643711 1.01581924 -10.81388046 1.05509793 -8.78125 1.08984375 C-7.87753662 1.1141748 -6.97382324 1.13850586 -6.04272461 1.16357422 C-3.2030744 1.07449492 -3.13525316 0.10409207 0 0 Z " fill="#3BACE3" transform="translate(281.94140625,426.90234375)"/>
<path d="M0 0 C2.64 0 5.28 0 8 0 C8 0.99 8 1.98 8 3 C6.35 3 4.7 3 3 3 C3 3.66 3 4.32 3 5 C1.88625 5.12375 0.7725 5.2475 -0.375 5.375 C-4.03103677 5.6465813 -4.03103677 5.6465813 -6 8 C-9.125 8.125 -9.125 8.125 -12 8 C-12 8.66 -12 9.32 -12 10 C-14.64 10 -17.28 10 -20 10 C-20 9.01 -20 8.02 -20 7 C-14.75614911 5.2520497 -10.52677733 4.80607799 -5 5 C-5 4.01 -5 3.02 -5 2 C-3.35 2 -1.7 2 0 2 C0 1.34 0 0.68 0 0 Z " fill="#38A9E1" transform="translate(314,417)"/>
<path d="M0 0 C0.99 0 1.98 0 3 0 C3 1.65 3 3.3 3 5 C2.01 5 1.02 5 0 5 C-0.33 6.65 -0.66 8.3 -1 10 C-1.99 10 -2.98 10 -4 10 C-4 10.99 -4 11.98 -4 13 C-4.99 13 -5.98 13 -7 13 C-7 13.66 -7 14.32 -7 15 C-7.66 15 -8.32 15 -9 15 C-9 16.65 -9 18.3 -9 20 C-9.99 20 -10.98 20 -12 20 C-12 20.66 -12 21.32 -12 22 C-12.66 22 -13.32 22 -14 22 C-14 22.99 -14 23.98 -14 25 C-14.99 25 -15.98 25 -17 25 C-17 24.01 -17 23.02 -17 22 C-16.34 22 -15.68 22 -15 22 C-13.79371992 19.66785852 -12.8345262 17.50357861 -12 15 C-11.34 15 -10.68 15 -10 15 C-10 14.01 -10 13.02 -10 12 C-9.01 12 -8.02 12 -7 12 C-7 11.34 -7 10.68 -7 10 C-6.34 10 -5.68 10 -5 10 C-4.67 8.35 -4.34 6.7 -4 5 C-3.34 5 -2.68 5 -2 5 C-1.34 3.35 -0.68 1.7 0 0 Z " fill="#2DA6E2" transform="translate(114,124)"/>
<path d="M0 0 C0.66 0 1.32 0 2 0 C1.34 2.31 0.68 4.62 0 7 C-0.99 7 -1.98 7 -3 7 C-3 7.99 -3 8.98 -3 10 C-3.66 10 -4.32 10 -5 10 C-5 11.65 -5 13.3 -5 15 C-5.99 15 -6.98 15 -8 15 C-8 16.65 -8 18.3 -8 20 C-8.66 20 -9.32 20 -10 20 C-10.33 21.65 -10.66 23.3 -11 25 C-11.66 25 -12.32 25 -13 25 C-13 25.66 -13 26.32 -13 27 C-13.66 27 -14.32 27 -15 27 C-15 26.01 -15 25.02 -15 24 C-14.34 24 -13.68 24 -13 24 C-13 22.35 -13 20.7 -13 19 C-12.01 19 -11.02 19 -10 19 C-10.33 17.35 -10.66 15.7 -11 14 C-10.01 14 -9.02 14 -8 14 C-8 12.35 -8 10.7 -8 9 C-7.34 9 -6.68 9 -6 9 C-6 7.68 -6 6.36 -6 5 C-4.6875 3.25 -4.6875 3.25 -3 2 C-2.01 2 -1.02 2 0 2 C0 1.34 0 0.68 0 0 Z " fill="#2DA2DF" transform="translate(178,224)"/>
<path d="M0 0 C0.33 0.99 0.66 1.98 1 3 C7.93 3 14.86 3 22 3 C22 3.66 22 4.32 22 5 C17.87506128 5.05875981 13.75023232 5.09384938 9.625 5.125 C8.46871094 5.14175781 7.31242187 5.15851563 6.12109375 5.17578125 C-0.84367123 5.2151302 -7.24033792 4.7135811 -14 3 C-14 2.34 -14 1.68 -14 1 C-9.38 0.67 -4.76 0.34 0 0 Z " fill="#3DB0EA" transform="translate(221,426)"/>
<path d="M0 0 C0.66 0 1.32 0 2 0 C3.70479066 8.49896766 4.25785291 16.594122 4.125 25.25 C4.11597656 26.38824219 4.10695313 27.52648437 4.09765625 28.69921875 C4.0744028 31.46637881 4.04172868 34.2330676 4 37 C3.34 37 2.68 37 2 37 C2 29.74 2 22.48 2 15 C1.34 15 0.68 15 0 15 C0 10.05 0 5.1 0 0 Z " fill="#30A8E6" transform="translate(427,207)"/>
<path d="M0 0 C0.99 0 1.98 0 3 0 C3 1.65 3 3.3 3 5 C2.34 5 1.68 5 1 5 C1 6.65 1 8.3 1 10 C0.01 10 -0.98 10 -2 10 C-2 11.65 -2 13.3 -2 15 C-2.66 15 -3.32 15 -4 15 C-4 17.31 -4 19.62 -4 22 C-4.99 22 -5.98 22 -7 22 C-7 22.99 -7 23.98 -7 25 C-7.99 25 -8.98 25 -10 25 C-9.67 23.35 -9.34 21.7 -9 20 C-8.34 20 -7.68 20 -7 20 C-7 18.35 -7 16.7 -7 15 C-6.34 15 -5.68 15 -5 15 C-4.67 12.69 -4.34 10.38 -4 8 C-3.34 8 -2.68 8 -2 8 C-2 6.35 -2 4.7 -2 3 C-1.34 3 -0.68 3 0 3 C0 2.01 0 1.02 0 0 Z " fill="#30A5E3" transform="translate(87,163)"/>
<path d="M0 0 C0.99 0 1.98 0 3 0 C3 2.64 3 5.28 3 8 C2.34 8 1.68 8 1 8 C0.855625 9.134375 0.71125 10.26875 0.5625 11.4375 C0 15 0 15 -1 16 C-1.36760731 18.32817964 -1.70241581 20.6618385 -2 23 C-2.66 23 -3.32 23 -4 23 C-4 24.65 -4 26.3 -4 28 C-4.99 28 -5.98 28 -7 28 C-7 25.69 -7 23.38 -7 21 C-6.01 20.67 -5.02 20.34 -4 20 C-2.9551242 15.37269289 -2.48243721 10.71146122 -2 6 C-1.34 6 -0.68 6 0 6 C0 4.02 0 2.04 0 0 Z " fill="#2CA5E2" transform="translate(424,294)"/>
<path d="M0 0 C2.31 0 4.62 0 7 0 C7 0.66 7 1.32 7 2 C7.99 1.938125 8.98 1.87625 10 1.8125 C14.46888211 1.78508355 17.91304608 3.2791773 22 5 C22 5.66 22 6.32 22 7 C23.65 7 25.3 7 27 7 C27 7.66 27 8.32 27 9 C24.69 9.33 22.38 9.66 20 10 C19.67 9.01 19.34 8.02 19 7 C17.35 7 15.7 7 14 7 C14 6.01 14 5.02 14 4 C13.01 4.495 13.01 4.495 12 5 C9.6670134 5.04022391 7.33293334 5.04320247 5 5 C4.67 4.34 4.34 3.68 4 3 C1.97536745 2.34786708 1.97536745 2.34786708 0 2 C0 1.34 0 0.68 0 0 Z " fill="#29A1DE" transform="translate(295,73)"/>
<path d="M0 0 C0.99 0 1.98 0 3 0 C3 0.99 3 1.98 3 3 C2.34 3 1.68 3 1 3 C0.34 4.65 -0.32 6.3 -1 8 C-1.99 8 -2.98 8 -4 8 C-4 8.66 -4 9.32 -4 10 C-4.99 10 -5.98 10 -7 10 C-7 10.99 -7 11.98 -7 13 C-7.66 13 -8.32 13 -9 13 C-9 13.66 -9 14.32 -9 15 C-9.99 15 -10.98 15 -12 15 C-12 15.66 -12 16.32 -12 17 C-13.65 17 -15.3 17 -17 17 C-16.505 15.515 -16.505 15.515 -16 14 C-14.68 14 -13.36 14 -12 14 C-12 12.68 -12 11.36 -12 10 C-10.35 9.67 -8.7 9.34 -7 9 C-7 7.68 -7 6.36 -7 5 C-5.35 5 -3.7 5 -2 5 C-2 4.01 -2 3.02 -2 2 C-1.34 2 -0.68 2 0 2 C0 1.34 0 0.68 0 0 Z " fill="#2AA8E3" transform="translate(268,293)"/>
<path d="M0 0 C0.99 0 1.98 0 3 0 C3 0.99 3 1.98 3 3 C2.34 3 1.68 3 1 3 C1 3.66 1 4.32 1 5 C0.01 5 -0.98 5 -2 5 C-2 5.66 -2 6.32 -2 7 C-2.66 7 -3.32 7 -4 7 C-4 7.99 -4 8.98 -4 10 C-5.65 10 -7.3 10 -9 10 C-9.33 11.65 -9.66 13.3 -10 15 C-11.65 14.67 -13.3 14.34 -15 14 C-15 13.34 -15 12.68 -15 12 C-14.01 12 -13.02 12 -12 12 C-12 11.01 -12 10.02 -12 9 C-11.34 9 -10.68 9 -10 9 C-10 8.34 -10 7.68 -10 7 C-9.01 7 -8.02 7 -7 7 C-7 6.01 -7 5.02 -7 4 C-6.34 4 -5.68 4 -5 4 C-5 3.34 -5 2.68 -5 2 C-3.35 2 -1.7 2 0 2 C0 1.34 0 0.68 0 0 Z " fill="#2AA4DF" transform="translate(322,242)"/>
<path d="M0 0 C0.99 0 1.98 0 3 0 C2.67 1.32 2.34 2.64 2 4 C0.68 4.33 -0.64 4.66 -2 5 C-2 4.01 -2 3.02 -2 2 C-1.34 2 -0.68 2 0 2 C0 1.34 0 0.68 0 0 Z M-5 5 C-4.01 5 -3.02 5 -2 5 C-2.37125 6.0725 -2.7425 7.145 -3.125 8.25 C-4.31491732 11.81629347 -4.31491732 11.81629347 -3.125 14.4375 C-2.568125 15.2109375 -2.568125 15.2109375 -2 16 C-3.98 16 -5.96 16 -8 16 C-8 15.34 -8 14.68 -8 14 C-8.66 14 -9.32 14 -10 14 C-10 11.69 -10 9.38 -10 7 C-8.35 7 -6.7 7 -5 7 C-5 6.34 -5 5.68 -5 5 Z " fill="#0EA0E6" transform="translate(293,203)"/>
<path d="M0 0 C0.66 0 1.32 0 2 0 C2 0.99 2 1.98 2 3 C1.34 3 0.68 3 0 3 C0 4.65 0 6.3 0 8 C-0.66 8 -1.32 8 -2 8 C-2 8.99 -2 9.98 -2 11 C-2.804375 11.2475 -3.60875 11.495 -4.4375 11.75 C-7.14904979 12.7023933 -7.14904979 12.7023933 -7.6875 14.9375 C-7.790625 15.618125 -7.89375 16.29875 -8 17 C-8.66 17.99 -9.32 18.98 -10 20 C-10.66 20 -11.32 20 -12 20 C-12 20.66 -12 21.32 -12 22 C-12.99 22 -13.98 22 -15 22 C-15 21.34 -15 20.68 -15 20 C-14.34 20 -13.68 20 -13 20 C-12.67 18.35 -12.34 16.7 -12 15 C-11.34 15 -10.68 15 -10 15 C-10 14.01 -10 13.02 -10 12 C-9.34 12 -8.68 12 -8 12 C-8 11.34 -8 10.68 -8 10 C-7.01 10 -6.02 10 -5 10 C-5 9.01 -5 8.02 -5 7 C-4.34 7 -3.68 7 -3 7 C-2.67 5.35 -2.34 3.7 -2 2 C-1.34 2 -0.68 2 0 2 C0 1.34 0 0.68 0 0 Z " fill="#2CA1DE" transform="translate(320,163)"/>
<path d="M0 0 C0.99 0 1.98 0 3 0 C3 0.99 3 1.98 3 3 C2.34 3 1.68 3 1 3 C0.67 4.65 0.34 6.3 0 8 C-0.66 8 -1.32 8 -2 8 C-2 9.32 -2 10.64 -2 12 C-2.66 12 -3.32 12 -4 12 C-4 12.99 -4 13.98 -4 15 C-4.99 15 -5.98 15 -7 15 C-7 16.65 -7 18.3 -7 20 C-7.99 20 -8.98 20 -10 20 C-10.20086443 16.28400809 -10.1519437 15.22791555 -8 12 C-7.01 12 -6.02 12 -5 12 C-5 10.35 -5 8.7 -5 7 C-4.01 7 -3.02 7 -2 7 C-2.33 5.35 -2.66 3.7 -3 2 C-2.01 2 -1.02 2 0 2 C0 1.34 0 0.68 0 0 Z " fill="#27A0DF" transform="translate(160,253)"/>
<path d="M0 0 C0.66 0 1.32 0 2 0 C4.21264666 4.42529333 3.29045294 9.96526141 2 14.5625 C1.67 15.366875 1.34 16.17125 1 17 C-0.32 17 -1.64 17 -3 17 C-3.04254356 15.00045254 -3.04080783 12.99958364 -3 11 C-2.67 10.67 -2.34 10.34 -2 10 C-1.6068352 8.32115762 -1.25914548 6.63149955 -0.9375 4.9375 C-0.76089844 4.01839844 -0.58429688 3.09929687 -0.40234375 2.15234375 C-0.26957031 1.44207031 -0.13679687 0.73179687 0 0 Z " fill="#10A2E8" transform="translate(189,311)"/>
<path d="M0 0 C0.66 0 1.32 0 2 0 C0.32598022 3.95677402 -2.13149285 6.84464213 -5 10 C-5.66 10 -6.32 10 -7 10 C-7.33 10.99 -7.66 11.98 -8 13 C-11.33441064 16.71548614 -14.81047482 19.36936791 -19 22 C-17.87548273 19.0280615 -16.77706209 16.66559313 -15 14 C-14.34 14 -13.68 14 -13 14 C-13 13.34 -13 12.68 -13 12 C-12.01 12 -11.02 12 -10 12 C-10 11.34 -10 10.68 -10 10 C-8.57421875 8.6328125 -8.57421875 8.6328125 -6.6875 7.125 C-4.02376711 4.93386488 -2.03869475 2.78979281 0 0 Z " fill="#0BA1E8" transform="translate(294,272)"/>
<path d="M0 0 C0.66 0 1.32 0 2 0 C2 0.99 2 1.98 2 3 C1.34 3 0.68 3 0 3 C0 3.99 0 4.98 0 6 C-0.66 6 -1.32 6 -2 6 C-2 6.66 -2 7.32 -2 8 C-2.66 8 -3.32 8 -4 8 C-4 8.66 -4 9.32 -4 10 C-4.99 10 -5.98 10 -7 10 C-7 10.99 -7 11.98 -7 13 C-7.66 13 -8.32 13 -9 13 C-9 13.66 -9 14.32 -9 15 C-9.99 15 -10.98 15 -12 15 C-12 15.66 -12 16.32 -12 17 C-12.99 17 -13.98 17 -15 17 C-15 16.34 -15 15.68 -15 15 C-14.34 15 -13.68 15 -13 15 C-13 14.01 -13 13.02 -13 12 C-12.01 12 -11.02 12 -10 12 C-10 11.34 -10 10.68 -10 10 C-9.34 10 -8.68 10 -8 10 C-8 9.01 -8 8.02 -8 7 C-7.01 7 -6.02 7 -5 7 C-5 6.34 -5 5.68 -5 5 C-4.34 5 -3.68 5 -3 5 C-3 4.01 -3 3.02 -3 2 C-2.01 2 -1.02 2 0 2 C0 1.34 0 0.68 0 0 Z " fill="#31ABE4" transform="translate(232,327)"/>
<path d="M0 0 C0 0.99 0 1.98 0 3 C-0.66 3 -1.32 3 -2 3 C-2 3.99 -2 4.98 -2 6 C-2.66 6 -3.32 6 -4 6 C-4 6.66 -4 7.32 -4 8 C-4.99 8 -5.98 8 -7 8 C-7 8.99 -7 9.98 -7 11 C-7.66 11 -8.32 11 -9 11 C-9 11.66 -9 12.32 -9 13 C-9.66 13 -10.32 13 -11 13 C-11 13.99 -11 14.98 -11 16 C-12.32 15.67 -13.64 15.34 -15 15 C-15 14.01 -15 13.02 -15 12 C-14.01 12 -13.02 12 -12 12 C-12 11.34 -12 10.68 -12 10 C-11.34 10 -10.68 10 -10 10 C-10 9.01 -10 8.02 -10 7 C-9.01 7 -8.02 7 -7 7 C-7 6.34 -7 5.68 -7 5 C-6.34 5 -5.68 5 -5 5 C-5 4.01 -5 3.02 -5 2 C-2 0 -2 0 0 0 Z " fill="#2DA6E7" transform="translate(212,349)"/>
<path d="M0 0 C0.99 0 1.98 0 3 0 C3.15392039 8.38011029 2.68271293 16.64895793 2 25 C0 23 0 23 -0.22705078 20.66162109 C-0.21657715 19.70852051 -0.20610352 18.75541992 -0.1953125 17.7734375 C-0.18886719 16.7421875 -0.18242188 15.7109375 -0.17578125 14.6484375 C-0.15902344 13.56820313 -0.14226562 12.48796875 -0.125 11.375 C-0.11597656 10.28703125 -0.10695313 9.1990625 -0.09765625 8.078125 C-0.07403409 5.38519848 -0.04109556 2.69270745 0 0 Z " fill="#33AAE9" transform="translate(68,255)"/>
<path d="M0 0 C1.32 0 2.64 0 4 0 C4 0.99 4 1.98 4 3 C3.01 3 2.02 3 1 3 C1 4.65 1 6.3 1 8 C0.34 8 -0.32 8 -1 8 C-1 9.65 -1 11.3 -1 13 C-1.99 13 -2.98 13 -4 13 C-4 13.66 -4 14.32 -4 15 C-4.99 15 -5.98 15 -7 15 C-7 14.01 -7 13.02 -7 12 C-6.34 11.67 -5.68 11.34 -5 11 C-4.34786708 8.97536745 -4.34786708 8.97536745 -4 7 C-3.34 7 -2.68 7 -2 7 C-1.855625 6.21625 -1.71125 5.4325 -1.5625 4.625 C-1 2 -1 2 0 0 Z " fill="#28A0DC" transform="translate(218,150)"/>
<path d="M0 0 C0.66 0.33 1.32 0.66 2 1 C1.8595017 3.7920301 1.71284617 6.58349796 1.5625 9.375 C1.50352539 10.56609375 1.50352539 10.56609375 1.44335938 11.78125 C1.11328125 17.7734375 1.11328125 17.7734375 0 20 C-0.66 20 -1.32 20 -2 20 C-2.33 15.71 -2.66 11.42 -3 7 C-2.01 6.67 -1.02 6.34 0 6 C0 4.02 0 2.04 0 0 Z " fill="#28A0E0" transform="translate(429,272)"/>
<path d="M0 0 C0.66 0 1.32 0 2 0 C2.33 2.31 2.66 4.62 3 7 C3.66 7 4.32 7 5 7 C5 9.97 5 12.94 5 16 C4.01 16 3.02 16 2 16 C2 14.02 2 12.04 2 10 C1.01 10 0.02 10 -1 10 C-0.67 6.7 -0.34 3.4 0 0 Z " fill="#2EA6E2" transform="translate(422,190)"/>
<path d="M0 0 C1.32 0.33 2.64 0.66 4 1 C4 3.64 4 6.28 4 9 C3.01 9 2.02 9 1 9 C1 10.98 1 12.96 1 15 C0.01 15 -0.98 15 -2 15 C-2.04254356 13.00045254 -2.04080783 10.99958364 -2 9 C-1.67 8.67 -1.34 8.34 -1 8 C-0.76924918 6.65252916 -0.58846937 5.29622435 -0.4375 3.9375 C-0.293125 2.638125 -0.14875 1.33875 0 0 Z " fill="#0AA1E8" transform="translate(193,293)"/>
<path d="M0 0 C0.33 0 0.66 0 1 0 C1 2.64 1 5.28 1 8 C0.34 8 -0.32 8 -1 8 C-1 10.64 -1 13.28 -1 16 C-1.99 15.67 -2.98 15.34 -4 15 C-4.33 11.7 -4.66 8.4 -5 5 C-3.68 5 -2.36 5 -1 5 C-0.67 3.35 -0.34 1.7 0 0 Z " fill="#2DA6E4" transform="translate(186,343)"/>
<path d="M0 0 C0.33 0 0.66 0 1 0 C1 3.3 1 6.6 1 10 C0.34 10 -0.32 10 -1 10 C-1 12.31 -1 14.62 -1 17 C-1.99 17 -2.98 17 -4 17 C-4 13.7 -4 10.4 -4 7 C-3.34 6.67 -2.68 6.34 -2 6 C-1.27306096 4.02111039 -0.60183749 2.02045442 0 0 Z " fill="#2BA4E1" transform="translate(191,322)"/>
<path d="M0 0 C1.32 0.33 2.64 0.66 4 1 C4 2.32 4 3.64 4 5 C4.66 5 5.32 5 6 5 C6.25 12.625 6.25 12.625 4 16 C3 15 3 15 2.9375 11.4375 C2.958125 10.303125 2.97875 9.16875 3 8 C2.34 8 1.68 8 1 8 C0.67 5.36 0.34 2.72 0 0 Z " fill="#2FA8E8" transform="translate(72,294)"/>
<path d="M0 0 C0.99 0 1.98 0 3 0 C3 0.66 3 1.32 3 2 C3.639375 2.309375 4.27875 2.61875 4.9375 2.9375 C7 4 7 4 8 5 C8.04063832 6.66617115 8.042721 8.33388095 8 10 C8.66 10 9.32 10 10 10 C10 10.66 10 11.32 10 12 C10.66 12 11.32 12 12 12 C12 12.99 12 13.98 12 15 C11.34 15 10.68 15 10 15 C10 14.34 10 13.68 10 13 C9.01 12.67 8.02 12.34 7 12 C7 11.34 7 10.68 7 10 C6.34 10 5.68 10 5 10 C5 8.35 5 6.7 5 5 C4.01 5 3.02 5 2 5 C2 4.34 2 3.68 2 3 C1.34 3 0.68 3 0 3 C0 2.01 0 1.02 0 0 Z " fill="#23A2E1" transform="translate(97,351)"/>
<path d="M0 0 C0.33 0 0.66 0 1 0 C1 2.64 1 5.28 1 8 C0.34 8 -0.32 8 -1 8 C-1 10.64 -1 13.28 -1 16 C-1.99 16 -2.98 16 -4 16 C-4 12.7 -4 9.4 -4 6 C-3.34 6 -2.68 6 -2 6 C-1.855625 5.195625 -1.71125 4.39125 -1.5625 3.5625 C-1 1 -1 1 0 0 Z " fill="#229CD8" transform="translate(201,284)"/>
<path d="M0 0 C0.66 0 1.32 0 2 0 C0.54229878 3.31907356 -1.29506264 5.65073389 -3.8125 8.25 C-4.47894531 8.95640625 -5.14539063 9.6628125 -5.83203125 10.390625 C-8.43559748 12.32336245 -9.83099716 12.33183276 -13 12 C-13 11.01 -13 10.02 -13 9 C-11.35 9 -9.7 9 -8 9 C-8 8.01 -8 7.02 -8 6 C-7.34 6 -6.68 6 -6 6 C-6 5.34 -6 4.68 -6 4 C-5.01 4 -4.02 4 -3 4 C-3 3.34 -3 2.68 -3 2 C-2.01 2 -1.02 2 0 2 C0 1.34 0 0.68 0 0 Z " fill="#0BA3E9" transform="translate(326,243)"/>
<path d="M0 0 C0.99 0 1.98 0 3 0 C3.33 4.62 3.66 9.24 4 14 C2.68 14.33 1.36 14.66 0 15 C-1.14229879 11.57310364 -0.90861076 9.38897782 -0.5625 5.8125 C-0.46066406 4.72582031 -0.35882813 3.63914063 -0.25390625 2.51953125 C-0.17011719 1.68808594 -0.08632812 0.85664063 0 0 Z " fill="#2DA7E5" transform="translate(70,207)"/>
<path d="M0 0 C0.33 0 0.66 0 1 0 C1 3.3 1 6.6 1 10 C0.34 10 -0.32 10 -1 10 C-1 12.31 -1 14.62 -1 17 C-1.99 17 -2.98 17 -4 17 C-4 14.03 -4 11.06 -4 8 C-3.01 7.67 -2.02 7.34 -1 7 C-1.020625 6.030625 -1.04125 5.06125 -1.0625 4.0625 C-1 1 -1 1 0 0 Z " fill="#26A0E0" transform="translate(196,302)"/>
<path d="M0 0 C0.99 0 1.98 0 3 0 C3 0.99 3 1.98 3 3 C2.34 3 1.68 3 1 3 C1 4.65 1 6.3 1 8 C0.34 8 -0.32 8 -1 8 C-1 9.65 -1 11.3 -1 13 C-2.98 13.33 -4.96 13.66 -7 14 C-7 13.34 -7 12.68 -7 12 C-6.34 12 -5.68 12 -5 12 C-4.87625 11.4225 -4.7525 10.845 -4.625 10.25 C-3.99351176 7.97664233 -3.11141809 6.0746471 -2 4 C-1.34 4 -0.68 4 0 4 C0 2.68 0 1.36 0 0 Z " fill="#0FA1E8" transform="translate(198,179)"/>
<path d="M0 0 C1.65 0 3.3 0 5 0 C5 0.99 5 1.98 5 3 C3.35 3 1.7 3 0 3 C0 3.66 0 4.32 0 5 C-0.66 5 -1.32 5 -2 5 C-2.33 5.99 -2.66 6.98 -3 8 C-4.32 8 -5.64 8 -7 8 C-7 8.66 -7 9.32 -7 10 C-7.99 10 -8.98 10 -10 10 C-10 9.01 -10 8.02 -10 7 C-7.35261084 5.5393715 -6.10551666 5 -3 5 C-3 4.01 -3 3.02 -3 2 C-2.01 2 -1.02 2 0 2 C0 1.34 0 0.68 0 0 Z " fill="#31A6E0" transform="translate(356,395)"/>
<path d="M0 0 C0.66 0.33 1.32 0.66 2 1 C1.67 1.66 1.34 2.32 1 3 C-0.32 3 -1.64 3 -3 3 C-3 4.65 -3 6.3 -3 8 C-4.65 8.66 -6.3 9.32 -8 10 C-8 10.99 -8 11.98 -8 13 C-9.65 13.66 -11.3 14.32 -13 15 C-13 14.34 -13 13.68 -13 13 C-12.34 13 -11.68 13 -11 13 C-11 11.68 -11 10.36 -11 9 C-10.34 9 -9.68 9 -9 9 C-9 8.34 -9 7.68 -9 7 C-8.01 7 -7.02 7 -6 7 C-6 6.34 -6 5.68 -6 5 C-5.34 5 -4.68 5 -4 5 C-4 4.01 -4 3.02 -4 2 C-2.125 0.9375 -2.125 0.9375 0 0 Z " fill="#29A6E1" transform="translate(374,380)"/>
<path d="M0 0 C1.32 0 2.64 0 4 0 C4 4.29 4 8.58 4 13 C3.01 13.495 3.01 13.495 2 14 C0.66416101 9.15758367 -0.25328119 5.06562383 0 0 Z " fill="#08A2E9" transform="translate(70,223)"/>
<path d="M0 0 C0.99 0.33 1.98 0.66 3 1 C3 2.32 3 3.64 3 5 C2.34 5 1.68 5 1 5 C0.855625 5.7425 0.71125 6.485 0.5625 7.25 C0.09812508 9.52027739 -0.41863569 11.75759479 -1 14 C-1.99 14 -2.98 14 -4 14 C-4 12.35 -4 10.7 -4 9 C-3.34 9 -2.68 9 -2 9 C-2 7.35 -2 5.7 -2 4 C-1.34 4 -0.68 4 0 4 C0 2.68 0 1.36 0 0 Z " fill="#2BA6E3" transform="translate(409,332)"/>
<path d="M0 0 C0.99 0.33 1.98 0.66 3 1 C3 3.64 3 6.28 3 9 C2.01 9 1.02 9 0 9 C0 10.98 0 12.96 0 15 C-0.99 15 -1.98 15 -3 15 C-3.125 12.625 -3.125 12.625 -3 10 C-2.34 9.34 -1.68 8.68 -1 8 C-0.54188325 6.02764667 -0.54188325 6.02764667 -0.375 3.875 C-0.25125 2.59625 -0.1275 1.3175 0 0 Z " fill="#09A0E9" transform="translate(184,332)"/>
<path d="M0 0 C11.52164009 -0.18451025 11.52164009 -0.18451025 17 1 C16.67 1.66 16.34 2.32 16 3 C10.72 3 5.44 3 0 3 C0 2.01 0 1.02 0 0 Z " fill="#09A2E9" transform="translate(223,71)"/>
<path d="M0 0 C0.66 0 1.32 0 2 0 C2 1.65 2 3.3 2 5 C1.34 5 0.68 5 0 5 C0 5.99 0 6.98 0 8 C-0.66 8 -1.32 8 -2 8 C-2.33 9.65 -2.66 11.3 -3 13 C-3.66 13 -4.32 13 -5 13 C-5.24042276 8.91281305 -4.42258812 5.82320557 -3 2 C-2.01 2 -1.02 2 0 2 C0 1.34 0 0.68 0 0 Z " fill="#2CA3DF" transform="translate(185,209)"/>
<path d="M0 0 C2.64 0 5.28 0 8 0 C8 0.66 8 1.32 8 2 C6.35 2 4.7 2 3 2 C3 2.99 3 3.98 3 5 C-3.625 5.125 -3.625 5.125 -7 4 C-7 3.34 -7 2.68 -7 2 C-4.69 2 -2.38 2 0 2 C0 1.34 0 0.68 0 0 Z " fill="#34A5E2" transform="translate(197,73)"/>
<path d="M0 0 C0.99 0 1.98 0 3 0 C3 0.99 3 1.98 3 3 C2.34 3 1.68 3 1 3 C1 3.99 1 4.98 1 6 C0.34 6 -0.32 6 -1 6 C-1 6.66 -1 7.32 -1 8 C-1.99 8 -2.98 8 -4 8 C-4 8.99 -4 9.98 -4 11 C-4.66 11 -5.32 11 -6 11 C-6.33 11.66 -6.66 12.32 -7 13 C-7.6875 11.25 -7.6875 11.25 -8 9 C-6.75 6.75 -6.75 6.75 -5 5 C-4.01 5 -3.02 5 -2 5 C-2 4.34 -2 3.68 -2 3 C-1.34 3 -0.68 3 0 3 C0 2.01 0 1.02 0 0 Z " fill="#30ABE8" transform="translate(339,224)"/>
<path d="M0 0 C0.99 0 1.98 0 3 0 C3 0.66 3 1.32 3 2 C3.99 2.33 4.98 2.66 6 3 C6 3.66 6 4.32 6 5 C6.66 5 7.32 5 8 5 C8 5.66 8 6.32 8 7 C9.65 7.33 11.3 7.66 13 8 C13 8.66 13 9.32 13 10 C9.28400809 10.20086443 8.22791555 10.1519437 5 8 C5 7.01 5 6.02 5 5 C4.01 5 3.02 5 2 5 C2 4.34 2 3.68 2 3 C1.34 3 0.68 3 0 3 C0 2.01 0 1.02 0 0 Z " fill="#22A1DD" transform="translate(358,102)"/>
<path d="M0 0 C0.33 0.99 0.66 1.98 1 3 C2.65 3 4.3 3 6 3 C6 3.99 6 4.98 6 6 C3.69 6 1.38 6 -1 6 C-1 5.34 -1 4.68 -1 4 C-2.65 4 -4.3 4 -6 4 C-6 3.01 -6 2.02 -6 1 C-4.02 0.67 -2.04 0.34 0 0 Z " fill="#2FA6E3" transform="translate(184,416)"/>
<path d="M0 0 C0.99 0 1.98 0 3 0 C3 1.65 3 3.3 3 5 C2.34 5 1.68 5 1 5 C1 6.65 1 8.3 1 10 C0.34 10 -0.32 10 -1 10 C-1.33 10.99 -1.66 11.98 -2 13 C-2.66 13 -3.32 13 -4 13 C-3.34 10.03 -2.68 7.06 -2 4 C-1.34 4 -0.68 4 0 4 C0 2.68 0 1.36 0 0 Z " fill="#2CA1DD" transform="translate(206,170)"/>
<path d="M0 0 C0.33 0.99 0.66 1.98 1 3 C-1.81227622 3.93742541 -3.58746844 4.13470844 -6.5 4.125 C-7.2734375 4.12757813 -8.046875 4.13015625 -8.84375 4.1328125 C-11 4 -11 4 -14 3 C-14 2.34 -14 1.68 -14 1 C-9.38 0.67 -4.76 0.34 0 0 Z " fill="#33A4E0" transform="translate(221,426)"/>
<path d="M0 0 C1.74627478 2.61941217 2.38722388 4.03824877 3 7 C1.68 7 0.36 7 -1 7 C-1 9.31 -1 11.62 -1 14 C-1.99 14 -2.98 14 -4 14 C-4.125 11.125 -4.125 11.125 -4 8 C-3.34 7.34 -2.68 6.68 -2 6 C-1.28591666 4.01643517 -0.61382258 2.01684563 0 0 Z " fill="#09A0E9" transform="translate(180,353)"/>
<path d="M0 0 C0.99 0 1.98 0 3 0 C3 0.99 3 1.98 3 3 C2.34 3 1.68 3 1 3 C1 3.99 1 4.98 1 6 C0.34 6 -0.32 6 -1 6 C-1 6.66 -1 7.32 -1 8 C-1.99 8 -2.98 8 -4 8 C-4 8.66 -4 9.32 -4 10 C-4.99 10 -5.98 10 -7 10 C-7 9.01 -7 8.02 -7 7 C-6.34 7 -5.68 7 -5 7 C-5 6.34 -5 5.68 -5 5 C-4.01 5 -3.02 5 -2 5 C-1.855625 4.360625 -1.71125 3.72125 -1.5625 3.0625 C-1 1 -1 1 0 0 Z " fill="#209FE5" transform="translate(334,146)"/>
<path d="M0 0 C1.65 0 3.3 0 5 0 C5 0.99 5 1.98 5 3 C1.62902617 4.49821059 -0.20442119 5 -4 5 C-4 5.66 -4 6.32 -4 7 C-4.99 7 -5.98 7 -7 7 C-7 6.01 -7 5.02 -7 4 C-6.34 4 -5.68 4 -5 4 C-5 3.34 -5 2.68 -5 2 C-3.35 2 -1.7 2 0 2 C0 1.34 0 0.68 0 0 Z " fill="#2FA6E0" transform="translate(341,405)"/>
<path d="M0 0 C2.26562673 2.26562673 2.94462749 3.84160705 3.09765625 7.04296875 C3.06510417 9.02864583 3.03255208 11.01432292 3 13 C1.68 12.67 0.36 12.34 -1 12 C-1.14285714 3.42857143 -1.14285714 3.42857143 0 0 Z " fill="#0BA0E8" transform="translate(424,279)"/>
<path d="M0 0 C0.66 0.33 1.32 0.66 2 1 C2 4.96 2 8.92 2 13 C0.68 13 -0.64 13 -2 13 C-2.23509196 8.18061476 -1.45184478 4.53701494 0 0 Z " fill="#09A2E9" transform="translate(72,264)"/>
<path d="M0 0 C3.63 0.33 7.26 0.66 11 1 C11 1.99 11 2.98 11 4 C7.04 4 3.08 4 -1 4 C-0.67 2.68 -0.34 1.36 0 0 Z " fill="#2AAAE4" transform="translate(279,69)"/>
<path d="M0 0 C0.99 0 1.98 0 3 0 C1.82744291 3.33727786 0.81131596 5.77437487 -2 8 C-2.66 8 -3.32 8 -4 8 C-4.33 8.99 -4.66 9.98 -5 11 C-5.66 10.67 -6.32 10.34 -7 10 C-7 9.01 -7 8.02 -7 7 C-5.35 6.34 -3.7 5.68 -2 5 C-2 4.01 -2 3.02 -2 2 C-1.34 2 -0.68 2 0 2 C0 1.34 0 0.68 0 0 Z " fill="#0DA2E8" transform="translate(320,169)"/>
<path d="M0 0 C0.99 0 1.98 0 3 0 C3 0.99 3 1.98 3 3 C4.98 3 6.96 3 9 3 C9.33 4.65 9.66 6.3 10 8 C9.01 8 8.02 8 7 8 C7 7.34 7 6.68 7 6 C5.35 5.67 3.7 5.34 2 5 C2 4.34 2 3.68 2 3 C1.34 3 0.68 3 0 3 C0 2.01 0 1.02 0 0 Z " fill="#21A4DC" transform="translate(324,82)"/>
<path d="M0 0 C0.66 0 1.32 0 2 0 C1.67 0.99 1.34 1.98 1 3 C0.67 2.01 0.34 1.02 0 0 Z M-3 2 C-2.01 2.33 -1.02 2.66 0 3 C-1.77858094 7.00180712 -3.15013949 9.76459712 -7 12 C-7.66 12 -8.32 12 -9 12 C-8.34 10.35 -7.68 8.7 -7 7 C-6.34 7 -5.68 7 -5 7 C-5 6.34 -5 5.68 -5 5 C-4.34 5 -3.68 5 -3 5 C-3 4.01 -3 3.02 -3 2 Z " fill="#0AA3E9" transform="translate(235,328)"/>
<path d="M0 0 C0 0.99 0 1.98 0 3 C-4.95 3 -9.9 3 -15 3 C-15 2.34 -15 1.68 -15 1 C-9.9752761 0.37470103 -5.07471573 -0.13012092 0 0 Z " fill="#08A2E9" transform="translate(276,71)"/>
<path d="M0 0 C0.66 1.65 1.32 3.3 2 5 C1.34 5 0.68 5 0 5 C-0.66 6.32 -1.32 7.64 -2 9 C-2.66 9 -3.32 9 -4 9 C-4 7.35 -4 5.7 -4 4 C-4.66 4 -5.32 4 -6 4 C-5.67 3.01 -5.34 2.02 -5 1 C-2 0 -2 0 0 0 Z " fill="#119EE8" transform="translate(410,158)"/>
<path d="M0 0 C0.33 1.32 0.66 2.64 1 4 C-0.41750563 3.88490339 -1.83401169 3.75746342 -3.25 3.625 C-4.03890625 3.55539062 -4.8278125 3.48578125 -5.640625 3.4140625 C-8.085877 2.98492887 -9.84836903 2.21399362 -12 1 C-8.0186217 -0.3271261 -4.14954773 -0.06915913 0 0 Z " fill="#0BA0E8" transform="translate(291,423)"/>
<path d="M0 0 C0.66 0 1.32 0 2 0 C2.33 1.98 2.66 3.96 3 6 C4.65 6.33 6.3 6.66 8 7 C8 7.66 8 8.32 8 9 C6.02 9 4.04 9 2 9 C2 8.34 2 7.68 2 7 C1.34 7 0.68 7 0 7 C0 4.69 0 2.38 0 0 Z " fill="#1193CD" transform="translate(283,210)"/>
<path d="M0 0 C0.99 0 1.98 0 3 0 C3 0.99 3 1.98 3 3 C2.34 3 1.68 3 1 3 C1 3.99 1 4.98 1 6 C0.34 6 -0.32 6 -1 6 C-1 6.66 -1 7.32 -1 8 C-2.98 8 -4.96 8 -7 8 C-6.67 7.01 -6.34 6.02 -6 5 C-4.68 5 -3.36 5 -2 5 C-2 4.34 -2 3.68 -2 3 C-1.34 3 -0.68 3 0 3 C0 2.01 0 1.02 0 0 Z " fill="#31A9E5" transform="translate(136,104)"/>
<path d="M0 0 C1.258125 -0.04125 2.51625 -0.0825 3.8125 -0.125 C4.52019531 -0.14820313 5.22789062 -0.17140625 5.95703125 -0.1953125 C8 0 8 0 11 2 C7.17010894 3.80230168 4.21878192 4.19622241 0 4 C0 2.68 0 1.36 0 0 Z " fill="#0BA0E8" transform="translate(208,423)"/>
<path d="M0 0 C0.99 0 1.98 0 3 0 C2.67 0.99 2.34 1.98 2 3 C1.34 3 0.68 3 0 3 C0 3.66 0 4.32 0 5 C-0.66 5 -1.32 5 -2 5 C-2 6.65 -2 8.3 -2 10 C-2.99 10 -3.98 10 -5 10 C-5 8.35 -5 6.7 -5 5 C-4.34 5 -3.68 5 -3 5 C-3 4.01 -3 3.02 -3 2 C-2.01 2 -1.02 2 0 2 C0 1.34 0 0.68 0 0 Z " fill="#2EA5DF" transform="translate(400,351)"/>
<path d="M0 0 C0.99 0 1.98 0 3 0 C3 1.65 3 3.3 3 5 C2.34 5 1.68 5 1 5 C1 6.65 1 8.3 1 10 C0.01 10 -0.98 10 -2 10 C-2 8.02 -2 6.04 -2 4 C-1.34 4 -0.68 4 0 4 C0 2.68 0 1.36 0 0 Z " fill="#26A6E4" transform="translate(414,322)"/>
<path d="M0 0 C1.32 0 2.64 0 4 0 C4 1.98 4 3.96 4 6 C2.02 6.33 0.04 6.66 -2 7 C-1.42415568 4.61435923 -0.77772405 2.33317216 0 0 Z " fill="#0BA3E8" transform="translate(188,196)"/>
<path d="M0 0 C0.99 0 1.98 0 3 0 C3 1.65 3 3.3 3 5 C2.34 5 1.68 5 1 5 C1 5.99 1 6.98 1 8 C0.01 8 -0.98 8 -2 8 C-2.33 6.02 -2.66 4.04 -3 2 C-2.01 2 -1.02 2 0 2 C0 1.34 0 0.68 0 0 Z " fill="#30A6E1" transform="translate(194,192)"/>
<path d="M0 0 C0.99 0 1.98 0 3 0 C3 0.99 3 1.98 3 3 C2.34 3 1.68 3 1 3 C1 4.65 1 6.3 1 8 C0.34 8 -0.32 8 -1 8 C-1 8.66 -1 9.32 -1 10 C-1.99 10 -2.98 10 -4 10 C-4 9.01 -4 8.02 -4 7 C-3.34 7 -2.68 7 -2 7 C-2 5.68 -2 4.36 -2 3 C-1.34 3 -0.68 3 0 3 C0 2.01 0 1.02 0 0 Z " fill="#289FDB" transform="translate(302,185)"/>
<path d="M0 0 C0.99 0 1.98 0 3 0 C3 3.3 3 6.6 3 10 C2.01 10 1.02 10 0 10 C0 6.7 0 3.4 0 0 Z " fill="#3BABE8" transform="translate(70,282)"/>
<path d="M0 0 C0.66 0.33 1.32 0.66 2 1 C1 5 1 5 0 9 C-0.99 9 -1.98 9 -3 9 C-3 9.66 -3 10.32 -3 11 C-3.99 10.67 -4.98 10.34 -6 10 C-5.38125 9.0925 -4.7625 8.185 -4.125 7.25 C-2.55610389 4.85051183 -1.19556179 2.59038388 0 0 Z " fill="#0CA2E8" transform="translate(216,148)"/>
<path d="M0 0 C0.99 0 1.98 0 3 0 C3 0.66 3 1.32 3 2 C2.01 2 1.02 2 0 2 C0.33 3.65 0.66 5.3 1 7 C-0.98 7.66 -2.96 8.32 -5 9 C-5 8.01 -5 7.02 -5 6 C-4.34 6 -3.68 6 -3 6 C-2.87625 5.38125 -2.7525 4.7625 -2.625 4.125 C-2 2 -2 2 0 0 Z " fill="#0CA3E8" transform="translate(157,253)"/>
<path d="M0 0 C1.32 0 2.64 0 4 0 C4.36923077 5.53846154 4.36923077 5.53846154 2.5 7.875 C1.7575 8.431875 1.7575 8.431875 1 9 C-0.4783226 6.04335481 -0.06032783 3.25770263 0 0 Z " fill="#089FE8" transform="translate(423,208)"/>
<path d="M0 0 C0.99 0 1.98 0 3 0 C3 0.66 3 1.32 3 2 C2.34 2 1.68 2 1 2 C0.67 3.32 0.34 4.64 0 6 C-1.65 6.33 -3.3 6.66 -5 7 C-5 6.01 -5 5.02 -5 4 C-4.01 4 -3.02 4 -2 4 C-2 3.34 -2 2.68 -2 2 C-1.34 2 -0.68 2 0 2 C0 1.34 0 0.68 0 0 Z M-7 7 C-6.01 7.495 -6.01 7.495 -5 8 C-5.99 8.495 -5.99 8.495 -7 9 C-7 8.34 -7 7.68 -7 7 Z " fill="#0FA1E6" transform="translate(310,181)"/>
<path d="M0 0 C0.99 0 1.98 0 3 0 C3 0.99 3 1.98 3 3 C2.01 3 1.02 3 0 3 C0 3.66 0 4.32 0 5 C-0.66 5 -1.32 5 -2 5 C-2 5.99 -2 6.98 -2 8 C-3.65 7.67 -5.3 7.34 -7 7 C-7 6.34 -7 5.68 -7 5 C-5.68 5 -4.36 5 -3 5 C-2.67 4.01 -2.34 3.02 -2 2 C-1.34 2 -0.68 2 0 2 C0 1.34 0 0.68 0 0 Z " fill="#32A8E4" transform="translate(146,97)"/>
<path d="M0 0 C2.375 0.6875 2.375 0.6875 5 2 C6.3125 4.625 6.3125 4.625 7 7 C5.68 7.33 4.36 7.66 3 8 C2.67 6.35 2.34 4.7 2 3 C1.34 3 0.68 3 0 3 C0 2.01 0 1.02 0 0 Z " fill="#0CA3E9" transform="translate(115,367)"/>
<path d="M0 0 C0.66 0 1.32 0 2 0 C2.33 3.96 2.66 7.92 3 12 C2.01 12 1.02 12 0 12 C0 8.04 0 4.08 0 0 Z " fill="#06A1E9" transform="translate(426,264)"/>
<path d="M0 0 C0.66 0 1.32 0 2 0 C2 0.99 2 1.98 2 3 C1.34 3 0.68 3 0 3 C0 3.66 0 4.32 0 5 C-0.66 5 -1.32 5 -2 5 C-2 5.99 -2 6.98 -2 8 C-2.99 8 -3.98 8 -5 8 C-5 8.66 -5 9.32 -5 10 C-5.66 10 -6.32 10 -7 10 C-7 9.01 -7 8.02 -7 7 C-6.34 7 -5.68 7 -5 7 C-5 6.34 -5 5.68 -5 5 C-4.34 5 -3.68 5 -3 5 C-2.67 4.01 -2.34 3.02 -2 2 C-1.34 2 -0.68 2 0 2 C0 1.34 0 0.68 0 0 Z " fill="#2C9FD7" transform="translate(305,256)"/>
<path d="M0 0 C0.66 0 1.32 0 2 0 C2 0.99 2 1.98 2 3 C2.99 3.33 3.98 3.66 5 4 C5 5.32 5 6.64 5 8 C4.01 8 3.02 8 2 8 C1.67 7.34 1.34 6.68 1 6 C0.34 6 -0.32 6 -1 6 C-0.67 4.02 -0.34 2.04 0 0 Z " fill="#22A1E0" transform="translate(410,163)"/>
<path d="M0 0 C0.99 0 1.98 0 3 0 C3 0.99 3 1.98 3 3 C1.35 3.66 -0.3 4.32 -2 5 C-2 5.99 -2 6.98 -2 8 C-2.99 8 -3.98 8 -5 8 C-5 8.66 -5 9.32 -5 10 C-5.66 10 -6.32 10 -7 10 C-6.3125 7.625 -6.3125 7.625 -5 5 C-2.375 3.6875 -2.375 3.6875 0 3 C0 2.01 0 1.02 0 0 Z " fill="#229BD8" transform="translate(124,114)"/>
<path d="M0 0 C0.99 0.495 0.99 0.495 2 1 C2 2.32 2 3.64 2 5 C2.99 5 3.98 5 5 5 C5 5.66 5 6.32 5 7 C5.66 7 6.32 7 7 7 C7 7.99 7 8.98 7 10 C6.01 10 5.02 10 4 10 C4 9.34 4 8.68 4 8 C3.01 7.67 2.02 7.34 1 7 C0.67 4.69 0.34 2.38 0 0 Z " fill="#1E9ADD" transform="translate(388,129)"/>
<path d="M0 0 C2.1640625 -0.29296875 2.1640625 -0.29296875 4.625 -0.1875 C5.44226563 -0.16042969 6.25953125 -0.13335937 7.1015625 -0.10546875 C8.04128906 -0.05326172 8.04128906 -0.05326172 9 0 C8.01 1.485 8.01 1.485 7 3 C4.8359375 3.29296875 4.8359375 3.29296875 2.375 3.1875 C1.55773437 3.16042969 0.74046875 3.13335937 -0.1015625 3.10546875 C-0.72804687 3.07066406 -1.35453125 3.03585937 -2 3 C-1.34 2.01 -0.68 1.02 0 0 Z " fill="#2EABEC" transform="translate(256,428)"/>
<path d="M0 0 C0.99 0 1.98 0 3 0 C3 0.99 3 1.98 3 3 C2.34 3 1.68 3 1 3 C1 3.99 1 4.98 1 6 C0.01 6 -0.98 6 -2 6 C-2 6.66 -2 7.32 -2 8 C-2.99 8 -3.98 8 -5 8 C-5 7.01 -5 6.02 -5 5 C-4.01 5 -3.02 5 -2 5 C-2 4.34 -2 3.68 -2 3 C-1.34 3 -0.68 3 0 3 C0 2.01 0 1.02 0 0 Z " fill="#239DDA" transform="translate(290,202)"/>
<path d="M0 0 C0 0.66 0 1.32 0 2 C-2.31 2.33 -4.62 2.66 -7 3 C-7 3.66 -7 4.32 -7 5 C-7.99 5 -8.98 5 -10 5 C-10 3 -10 3 -8.9375 1.375 C-6.03661182 -0.68369484 -3.45519943 -0.19557733 0 0 Z " fill="#34AADA" transform="translate(334,412)"/>
<path d="M0 0 C0.99 0.33 1.98 0.66 3 1 C1.61122646 4.35620271 0.08322035 6.07298728 -3 8 C-3.66 8 -4.32 8 -5 8 C-5 7.01 -5 6.02 -5 5 C-4.01 5 -3.02 5 -2 5 C-2 4.34 -2 3.68 -2 3 C-1.34 3 -0.68 3 0 3 C0 2.01 0 1.02 0 0 Z " fill="#0CA3E8" transform="translate(335,149)"/>
<path d="M0 0 C1.32 0 2.64 0 4 0 C4 0.99 4 1.98 4 3 C0.49223216 4.60355101 -2.14354879 5.22036864 -6 5 C-6 4.34 -6 3.68 -6 3 C-5.195625 2.690625 -4.39125 2.38125 -3.5625 2.0625 C-1.10919595 1.23664655 -1.10919595 1.23664655 0 0 Z " fill="#3CAEE4" transform="translate(172,82)"/>
<path d="M0 0 C3.37462715 0.54723683 5.08235 1.0549 8 3 C7.67 3.66 7.34 4.32 7 5 C6.01 5 5.02 5 4 5 C4 4.34 4 3.68 4 3 C2.35 3 0.7 3 -1 3 C-0.67 2.01 -0.34 1.02 0 0 Z " fill="#24A2E1" transform="translate(159,407)"/>
<path d="M0 0 C0.99 0.33 1.98 0.66 3 1 C3 1.99 3 2.98 3 4 C2.01 4 1.02 4 0 4 C0 5.32 0 6.64 0 8 C-0.99 7.67 -1.98 7.34 -3 7 C-2.38722388 4.03824877 -1.74627478 2.61941217 0 0 Z " fill="#0DA1E9" transform="translate(414,318)"/>
<path d="M0 0 C0.66 0 1.32 0 2 0 C2 1.65 2 3.3 2 5 C1.34 5 0.68 5 0 5 C0 6.32 0 7.64 0 9 C-0.99 9 -1.98 9 -3 9 C-3 7.35 -3 5.7 -3 4 C-2.01 4 -1.02 4 0 4 C0 2.68 0 1.36 0 0 Z " fill="#31A4DE" transform="translate(95,149)"/>
<path d="M0 0 C1.65 0 3.3 0 5 0 C5 0.99 5 1.98 5 3 C3.68 3 2.36 3 1 3 C1 3.66 1 4.32 1 5 C-0.65 5 -2.3 5 -4 5 C-4 4.34 -4 3.68 -4 3 C-2.68 3 -1.36 3 0 3 C0 2.01 0 1.02 0 0 Z " fill="#3BAEE4" transform="translate(153,92)"/>
<path d="M0 0 C0.99 0.33 1.98 0.66 3 1 C3 1.66 3 2.32 3 3 C2.34 3 1.68 3 1 3 C1 4.65 1 6.3 1 8 C-0.32 7.34 -1.64 6.68 -3 6 C-2.01 4.02 -1.02 2.04 0 0 Z " fill="#0EA2E8" transform="translate(169,230)"/>
<path d="M0 0 C0.99 0 1.98 0 3 0 C3 0.99 3 1.98 3 3 C2.34 3 1.68 3 1 3 C1 4.65 1 6.3 1 8 C0.01 8 -0.98 8 -2 8 C-2 6.35 -2 4.7 -2 3 C-1.34 3 -0.68 3 0 3 C0 2.01 0 1.02 0 0 Z " fill="#2AA1DA" transform="translate(199,184)"/>
<path d="M0 0 C2 1 2 1 2 1 Z M-4 1 C-2.68 1 -1.36 1 0 1 C-0.33 2.32 -0.66 3.64 -1 5 C-2.32 5.33 -3.64 5.66 -5 6 C-4.67 4.35 -4.34 2.7 -4 1 Z " fill="#0BA4E9" transform="translate(191,373)"/>
<path d="M0 0 C0.66 0 1.32 0 2 0 C1 4 1 4 0 8 C-0.99 8 -1.98 8 -3 8 C-2.45276317 4.62537285 -1.9451 2.91765 0 0 Z " fill="#0CA2E9" transform="translate(150,264)"/>
<path d="M0 0 C0.99 0 1.98 0 3 0 C3 0.99 3 1.98 3 3 C2.34 3 1.68 3 1 3 C1 7.62 1 12.24 1 17 C0.67 17 0.34 17 0 17 C0 11.39 0 5.78 0 0 Z " fill="#28ABEB" transform="translate(428,254)"/>
<path d="M0 0 C0.99 0 1.98 0 3 0 C3 0.99 3 1.98 3 3 C2.34 3 1.68 3 1 3 C1 4.32 1 5.64 1 7 C0.01 7 -0.98 7 -2 7 C-2 5.35 -2 3.7 -2 2 C-1.34 2 -0.68 2 0 2 C0 1.34 0 0.68 0 0 Z " fill="#30A4DE" transform="translate(189,202)"/>
<path d="M0 0 C2.31 0.66 4.62 1.32 7 2 C7 2.99 7 3.98 7 5 C5.35 5 3.7 5 2 5 C2 4.34 2 3.68 2 3 C1.01 2.67 0.02 2.34 -1 2 C-0.67 1.34 -0.34 0.68 0 0 Z " fill="#1C9BDB" transform="translate(339,90)"/>
<path d="M0 0 C0 0.99 0 1.98 0 3 C-2.64 3 -5.28 3 -8 3 C-8 2.34 -8 1.68 -8 1 C-5.29120665 -0.35439668 -2.99066732 -0.06501451 0 0 Z " fill="#31A2DB" transform="translate(205,424)"/>
<path d="M0 0 C0.99 0 1.98 0 3 0 C3 0.99 3 1.98 3 3 C2.34 3 1.68 3 1 3 C0.67 3.99 0.34 4.98 0 6 C-2.0625 7.1875 -2.0625 7.1875 -4 8 C-4 7.01 -4 6.02 -4 5 C-3.34 5 -2.68 5 -2 5 C-2 4.34 -2 3.68 -2 3 C-1.34 3 -0.68 3 0 3 C0 2.01 0 1.02 0 0 Z " fill="#119FE4" transform="translate(307,256)"/>
<path d="M0 0 C0.66 0 1.32 0 2 0 C3.35439668 2.70879335 3.06501451 5.00933268 3 8 C2.01 8 1.02 8 0 8 C0 5.36 0 2.72 0 0 Z " fill="#21A0E1" transform="translate(422,190)"/>
<path d="M0 0 C-0.33 1.65 -0.66 3.3 -1 5 C-2.65 4.67 -4.3 4.34 -6 4 C-5.67 3.01 -5.34 2.02 -5 1 C-2 0 -2 0 0 0 Z " fill="#0C9FE8" transform="translate(309,77)"/>
<path d="M0 0 C0.99 0 1.98 0 3 0 C3 0.66 3 1.32 3 2 C3.99 2 4.98 2 6 2 C5.34 3.32 4.68 4.64 4 6 C3.34 6 2.68 6 2 6 C2 5.01 2 4.02 2 3 C1.34 3 0.68 3 0 3 C0 2.01 0 1.02 0 0 Z " fill="#09A2E8" transform="translate(137,389)"/>
<path d="M0 0 C1.32 0.66 2.64 1.32 4 2 C4 2.66 4 3.32 4 4 C3.01 4 2.02 4 1 4 C1 4.66 1 5.32 1 6 C0.01 6 -0.98 6 -2 6 C-2 5.01 -2 4.02 -2 3 C-1.34 3 -0.68 3 0 3 C0 2.01 0 1.02 0 0 Z " fill="#0DA0E7" transform="translate(164,239)"/>
<path d="M0 0 C0.99 0.66 1.98 1.32 3 2 C3 2.99 3 3.98 3 5 C1.35 5.33 -0.3 5.66 -2 6 C-1.125 1.125 -1.125 1.125 0 0 Z " fill="#0BA3E7" transform="translate(392,356)"/>
<path d="M0 0 C0.66 0 1.32 0 2 0 C2 0.66 2 1.32 2 2 C2.99 2 3.98 2 5 2 C5 3.65 5 5.3 5 7 C4.01 7 3.02 7 2 7 C1.34 4.69 0.68 2.38 0 0 Z " fill="#24A2E2" transform="translate(90,339)"/>
<path d="M0 0 C0.33 0 0.66 0 1 0 C1 3.3 1 6.6 1 10 C0.34 10 -0.32 10 -1 10 C-2.31223496 6.06329512 -1.24296256 3.87511856 0 0 Z " fill="#2EA3DA" transform="translate(196,302)"/>
<path d="M0 0 C0.66 0 1.32 0 2 0 C1.34 2.31 0.68 4.62 0 7 C-0.99 7 -1.98 7 -3 7 C-3 5.35 -3 3.7 -3 2 C-2.01 2 -1.02 2 0 2 C0 1.34 0 0.68 0 0 Z " fill="#35A5DC" transform="translate(178,224)"/>
<path d="M0 0 C0.66 0 1.32 0 2 0 C2.33 0.99 2.66 1.98 3 3 C1.68 3.99 0.36 4.98 -1 6 C-1.66 5.67 -2.32 5.34 -3 5 C-3 4.01 -3 3.02 -3 2 C-2.01 2 -1.02 2 0 2 C0 1.34 0 0.68 0 0 Z " fill="#0FA0E7" transform="translate(301,193)"/>
<path d="M0 0 C2.64 0.33 5.28 0.66 8 1 C8 1.66 8 2.32 8 3 C5.36 3 2.72 3 0 3 C0 2.01 0 1.02 0 0 Z " fill="#069EE8" transform="translate(208,73)"/>
<path d="M0 0 C0.66 0 1.32 0 2 0 C2 1.65 2 3.3 2 5 C1.34 5 0.68 5 0 5 C0 5.66 0 6.32 0 7 C-0.99 7 -1.98 7 -3 7 C-3 6.34 -3 5.68 -3 5 C-2.34 5 -1.68 5 -1 5 C-0.67 3.35 -0.34 1.7 0 0 Z " fill="#2EA3DE" transform="translate(325,156)"/>
<path d="M0 0 C0.66 0 1.32 0 2 0 C2 0.66 2 1.32 2 2 C2.99 2 3.98 2 5 2 C5 2.99 5 3.98 5 5 C3.35 5 1.7 5 0 5 C0 3.35 0 1.7 0 0 Z " fill="#1EA1DD" transform="translate(371,112)"/>
<path d="M0 0 C0.66 0 1.32 0 2 0 C2 1.65 2 3.3 2 5 C0.35 5 -1.3 5 -3 5 C-2.67 4.01 -2.34 3.02 -2 2 C-1.34 2 -0.68 2 0 2 C0 1.34 0 0.68 0 0 Z " fill="#3EA0E9" transform="translate(193,364)"/>
<path d="M0 0 C0.99 0.33 1.98 0.66 3 1 C3 2.98 3 4.96 3 7 C2.01 6.67 1.02 6.34 0 6 C0 4.02 0 2.04 0 0 Z " fill="#049DE8" transform="translate(189,314)"/>
<path d="M0 0 C0.99 0 1.98 0 3 0 C3 1.65 3 3.3 3 5 C1.68 5 0.36 5 -1 5 C-0.67 3.35 -0.34 1.7 0 0 Z " fill="#099EE8" transform="translate(419,191)"/>
<path d="M0 0 C0.66 0 1.32 0 2 0 C2 2.31 2 4.62 2 7 C1.01 7 0.02 7 -1 7 C-0.67 4.69 -0.34 2.38 0 0 Z " fill="#1EA0E2" transform="translate(420,183)"/>
<path d="M0 0 C0.99 0 1.98 0 3 0 C3 0.99 3 1.98 3 3 C2.34 3 1.68 3 1 3 C1 3.66 1 4.32 1 5 C0.01 5 -0.98 5 -2 5 C-2 4.01 -2 3.02 -2 2 C-1.34 2 -0.68 2 0 2 C0 1.34 0 0.68 0 0 Z " fill="#36AAE4" transform="translate(214,344)"/>
<path d="M0 0 C0.99 0 1.98 0 3 0 C3 0.99 3 1.98 3 3 C2.34 3 1.68 3 1 3 C1 3.66 1 4.32 1 5 C0.01 5 -0.98 5 -2 5 C-2 4.01 -2 3.02 -2 2 C-1.34 2 -0.68 2 0 2 C0 1.34 0 0.68 0 0 Z " fill="#31A7E5" transform="translate(273,288)"/>
<path d="M0 0 C0.99 0.33 1.98 0.66 3 1 C3 2.65 3 4.3 3 6 C2.01 6 1.02 6 0 6 C0 4.02 0 2.04 0 0 Z " fill="#21A2E2" transform="translate(405,153)"/>
<path d="M0 0 C0.99 0 1.98 0 3 0 C3 0.99 3 1.98 3 3 C2.34 3 1.68 3 1 3 C1 3.66 1 4.32 1 5 C0.01 5 -0.98 5 -2 5 C-2 4.01 -2 3.02 -2 2 C-1.34 2 -0.68 2 0 2 C0 1.34 0 0.68 0 0 Z " fill="#2FA4DA" transform="translate(329,151)"/>
<path d="M0 0 C0.99 0.33 1.98 0.66 3 1 C3 1.66 3 2.32 3 3 C3.66 3 4.32 3 5 3 C5 3.66 5 4.32 5 5 C3.35 5 1.7 5 0 5 C0 3.35 0 1.7 0 0 Z " fill="#1EA1DF" transform="translate(383,124)"/>
<path d="M0 0 C0.99 0 1.98 0 3 0 C3 0.66 3 1.32 3 2 C3.66 2 4.32 2 5 2 C5 2.99 5 3.98 5 5 C4.01 5 3.02 5 2 5 C2 4.34 2 3.68 2 3 C1.34 3 0.68 3 0 3 C0 2.01 0 1.02 0 0 Z " fill="#219EDE" transform="translate(351,97)"/>
</svg>
