<svg fill="none" xmlns="http://www.w3.org/2000/svg" viewBox="0 0 206 200"><g clip-path="url(#a)"><path d="M98 4.1c-39.7 0-85.6 27-85.6 64.8 0 33.7 19.3 44.7 26.7 63.2 11.6 29 23.5 57.7 69.6 57.7 51 0 34.6-39.6 45.5-69.8 7.4-20.6 23.2-36.5 23.2-63.2C177.4 30.2 161.5 4 98 4Z" fill="#4580F7"/></g><g clip-path="url(#b)"><path d="M194 125.4h-51c-3.6 0-6.6-3-6.6-6.6v-95c0-3.6 3-6.6 6.6-6.6h51c3.6 0 6.5 3 6.5 6.6v95c0 3.6-3 6.6-6.5 6.6Z" fill="#14171F"/><path d="M194 125.7h-51c-3.8 0-6.9-3-6.9-6.9v-95c0-3.8 3-6.9 6.9-6.9h51c3.7 0 6.8 3 6.8 6.9v95c0 3.8-3 6.9-6.8 6.9ZM143 17.6a6.2 6.2 0 0 0-6.2 6.2v95c0 3.5 2.7 6.2 6.2 6.2h51c3.4 0 6.2-2.7 6.2-6.2v-95c0-3.5-2.8-6.2-6.2-6.2h-51Z" fill="#14171F"/><path d="M200.5 28.5h-64v-4.7c0-3.6 2.9-6.6 6.5-6.6h51c3.6 0 6.5 3 6.5 6.6v4.7Z" fill="#fff"/><path d="M200.5 28.5h-63V24c0-3.1 2.5-5.6 5.6-5.6H195c3 0 5.6 2.5 5.6 5.6v4.5Z" fill="#DBDFEA"/><path d="M200.5 28.9h-64a.3.3 0 0 1-.4-.4v-4.7c0-3.8 3-6.9 6.9-6.9h51c3.7 0 6.8 3 6.8 6.9v4.7a.3.3 0 0 1-.3.4Zm-63.7-.7h63.4v-4.4c0-3.5-2.8-6.2-6.2-6.2h-51a6.2 6.2 0 0 0-6.2 6.2v4.4Z" fill="#14171F"/><path d="M190 25.8a.3.3 0 0 1-.3-.2v-.2l.1-.1L195 20a.3.3 0 0 1 .4 0 .3.3 0 0 1 .2.1.3.3 0 0 1 0 .3l-.1.1-5.2 5.2-.1.1h-.2Z" fill="#14171F"/><path d="M195.3 25.8a.3.3 0 0 1-.3 0l-5.2-5.3a.3.3 0 1 1 .5-.5l5.2 5.3v.1a.3.3 0 0 1 0 .4h-.2Z" fill="#14171F"/></g><g clip-path="url(#c)"><path d="M170.8 45.6h-24.1a.3.3 0 0 1 0-.7h24.1a.3.3 0 0 1 0 .7Z" fill="#DBDFEA"/><path d="M190.7 51.4h-37.6a.3.3 0 0 1-.2-.6H190.7a.3.3 0 0 1 0 .6ZM178.3 57H153a.3.3 0 0 1-.2-.5l.2-.1h25.2a.3.3 0 0 1 .3.3l-.1.2-.2.1Z" fill="#fff"/><path d="M162.5 62.9h-16.1a.3.3 0 0 1 0-.7h16a.3.3 0 0 1 0 .7Z" fill="#DBDFEA"/><path d="M186 68.7h-32.9a.3.3 0 0 1-.2-.6H186a.3.3 0 0 1 0 .6Zm-6 5.7h-19a.3.3 0 0 1 0-.6h19a.3.3 0 0 1 0 .6Zm10.7 5.8H161a.3.3 0 0 1 0-.6h29.7a.3.3 0 0 1 0 .6ZM175.4 86H161a.3.3 0 0 1 0-.7h14.4a.3.3 0 0 1 0 .7Z" fill="#fff"/><path d="M179.5 91.7h-33.1a.3.3 0 0 1 0-.6h33.1a.3.3 0 0 1 0 .6Z" fill="#DBDFEA"/><path d="M168.8 97.5H153a.3.3 0 0 1 0-.6h15.7a.3.3 0 0 1 0 .6Zm12.1 5.8h-20l-.1-.1a.3.3 0 0 1 .2-.6h19.9a.3.3 0 1 1 0 .7Zm9.8 5.7H161a.3.3 0 0 1-.3-.3.3.3 0 0 1 .3-.3h29.7a.3.3 0 1 1 0 .6ZM160 39h-9.2a.3.3 0 0 1 0-.7h9.2a.3.3 0 0 1 0 .6Zm-11.1 2.3a.3.3 0 0 1-.3-.1l-2.3-2.4a.3.3 0 0 1 0-.4l2.3-2.4a.3.3 0 0 1 .3 0 .3.3 0 0 1 .3.4l-.1.1-2.1 2.1 2.1 2.1v.2a.3.3 0 0 1-.2.4Zm13.2 0h-.2l-.1-.2a.3.3 0 0 1 0-.4l2.1-2-2-2.2a.3.3 0 1 1 .4-.5l2.3 2.4a.3.3 0 0 1 0 .4l-2.3 2.4a.3.3 0 0 1-.2 0Zm1.4 74.4h-9.1a.3.3 0 1 1 0-.7h9.1a.3.3 0 0 1 .2.6l-.2.1Zm-14.6 2.3a.3.3 0 0 1-.3 0l-2.3-2.4a.3.3 0 0 1 0-.5l2.3-2.3h.1a.3.3 0 0 1 .3 0 .3.3 0 0 1 .2.1v.1a.3.3 0 0 1-.1.3l-2.1 2 2.1 2.2v.2a.3.3 0 0 1-.2.3Zm16.7 0a.3.3 0 0 1-.4-.3l.1-.2 2.1-2.1-2-2.1a.3.3 0 0 1 0-.6.3.3 0 0 1 .4.1l2.3 2.3a.3.3 0 0 1 0 .5l-2.3 2.3a.3.3 0 0 1-.2.1Zm-14.8 0h-.2a.3.3 0 0 1-.1-.4l2.5-4.7a.3.3 0 0 1 .2-.2.3.3 0 0 1 .2 0 .3.3 0 0 1 .2.2v.2L151 118a.3.3 0 0 1-.3.1Z" fill="#fff"/></g><g clip-path="url(#d)"><path d="M64.2 126.8h-3.5a.3.3 0 0 1 .3-.6h3.2a.3.3 0 1 1 0 .6Zm18.6 0H66.5a.3.3 0 0 1 .2-.6h16c1.7 0 3-1.3 3-3V96a2.9 2.9 0 0 0-3-2.9h-19a.3.3 0 0 1-.4-.3c0-.2.1-.3.3-.3h19.1a3.5 3.5 0 0 1 3.6 3.5v27.3c0 2-1.6 3.5-3.5 3.5Z" fill="#fff"/><path d="M67.3 95.3H67l-3.6-2a.3.3 0 0 1 0-.7l3.2-1.8a.3.3 0 0 1 .4.1.3.3 0 0 1-.1.5l-2.7 1.5 3.1 1.8a.3.3 0 0 1 0 .6h-.1Zm39.2-40h-26c-1.9 0-3.5-1.6-3.5-3.5V37.4c0-2 1.6-3.5 3.6-3.5h25.9a.3.3 0 0 1 0 .6h-26a2.9 2.9 0 0 0-2.8 3v14.3c0 1.6 1.3 2.9 2.9 2.9h25.9a.3.3 0 0 1 0 .6Z" fill="#fff"/><path d="M43 64.8a.3.3 0 0 1-.2-.3V47.8c0-2 1.5-3.5 3.5-3.5h31a.3.3 0 1 1 0 .6h-31a2.9 2.9 0 0 0-2.9 3v16.6a.3.3 0 0 1-.3.3Zm0 7.2a.3.3 0 0 1-.2-.3v-4.4a.3.3 0 0 1 .6 0v4.4a.3.3 0 0 1-.3.3Zm0 49.6-.2-.1v-12.2a.3.3 0 0 1 .6 0v12a.3.3 0 0 1-.3.3Z" fill="#fff"/><path d="M63 92 44.2 77.6a1.9 1.9 0 0 0-2.3 0L23.2 92c-1 .7-1 2.2 0 3l18.7 14.5a1.9 1.9 0 0 0 2.3 0L63 95c1-.7 1-2.2 0-3Z" fill="#14171F"/><path d="M43 110.3c-.4 0-.9-.1-1.3-.4L23 95.3a2.2 2.2 0 0 1-.9-1.7c0-.7.4-1.4.9-1.8l18.7-14.6a2.2 2.2 0 0 1 2.7 0l18.8 14.6c.5.4.8 1 .8 1.8 0 .6-.3 1.3-.8 1.7l-18.8 14.6c-.4.3-.8.4-1.3.4Zm0-32.9-.9.3-18.7 14.6a1.5 1.5 0 0 0-.4 2l.4.5L42 109.4a1.5 1.5 0 0 0 2 0l18.7-14.6c.3-.3.5-.8.5-1.2 0-.5-.2-1-.5-1.3L44 77.7c-.3-.2-.6-.3-1-.3ZM57.8 122H28.4a1.3 1.3 0 0 0-1.3 1.3v7.9a1.3 1.3 0 0 0 1.3 1.3h29.3A1.3 1.3 0 0 0 59 131v-7.9a1.3 1.3 0 0 0-1.3-1.3Z" fill="#14171F"/><path d="M57.7 132.7H28.4c-.9 0-1.6-.7-1.6-1.6v-7.9c0-.9.7-1.6 1.6-1.6h29.3c.9 0 1.6.7 1.6 1.6v7.9c0 .9-.7 1.6-1.6 1.6Zm-29.3-10.4a1 1 0 0 0-1 1v7.8c0 .5.5 1 1 1h29.3c.5 0 1-.5 1-1v-7.9c0-.5-.5-1-1-1H28.4Zm117-80.9H113a6.5 6.5 0 0 1 0-13h32.4a6.5 6.5 0 0 1 0 13Z" fill="#14171F"/><path d="M145.4 41.7H113a6.9 6.9 0 0 1 0-13.7h32.4a6.9 6.9 0 0 1 0 13.7Zm-32.4-13a6.2 6.2 0 0 0 0 12.4h32.4a6.2 6.2 0 0 0 0-12.4H113Zm24.5 33.5H113a6.5 6.5 0 0 1 0-13h24.5a6.5 6.5 0 0 1 0 13Z" fill="#14171F"/><path d="M137.5 62.5H113a6.9 6.9 0 0 1 0-13.7h24.5a6.9 6.9 0 0 1 0 13.7Zm-24.5-13a6.2 6.2 0 0 0 0 12.4h24.5a6.2 6.2 0 0 0 0-12.5H113Z" fill="#14171F"/><path d="M63 94.4 44.2 109a1.9 1.9 0 0 1-2.3 0L28.5 98.5l-5.3-4.1c-1-.8-1-2.2 0-3l18.7-14.6a1.8 1.8 0 0 1 2.3 0L63 91.4c1 .8 1 2.2 0 3Z" fill="#fff"/><path d="m43.8 76.6-1 .8c-1.2 1-2.7 1.8-3.4 3.3l-.7 1.7c-.7 1-2 1.4-3 2.1-1 .7-1.5 1.7-1.8 2.8l-.4 1.9c-.8 2.4-3 4-4.8 5.9-.4.4-.8 1-.8 1.6 0 .5.2 1 .4 1.5l.2.3-5.3-4.1c-1-.8-1-2.2 0-3l18.7-14.6a1.8 1.8 0 0 1 1.9-.2Z" fill="#DBDFEA"/><path d="M43 109.7c-.4 0-.9-.2-1.3-.5L23 94.6a2.2 2.2 0 0 1-.9-1.7c0-.7.4-1.3.9-1.8l18.7-14.6a2.2 2.2 0 0 1 2.7 0l18.8 14.6c.5.5.8 1 .8 1.8 0 .7-.3 1.3-.8 1.7l-18.8 14.6c-.4.3-.8.5-1.3.5Zm0-33c-.3 0-.6.2-.9.4L23.4 91.7c-.4.3-.6.7-.6 1.2 0 .4.2.9.6 1.2L42 108.7a1.5 1.5 0 0 0 2 0L62.7 94c.3-.3.5-.8.5-1.2 0-.5-.2-1-.5-1.2L44 77c-.3-.2-.6-.4-1-.4Z" fill="#14171F"/><path d="M57.7 121.3H28.4a1.3 1.3 0 0 0-1.3 1.3v7.8a1.3 1.3 0 0 0 1.3 1.3h29.3a1.3 1.3 0 0 0 1.3-1.3v-7.8a1.3 1.3 0 0 0-1.3-1.3Z" fill="#fff"/><path d="M57.7 132H28.4c-.9 0-1.6-.7-1.6-1.6v-7.8c0-1 .7-1.7 1.6-1.7h29.3c.9 0 1.6.8 1.6 1.7v7.8c0 .9-.7 1.6-1.6 1.6Zm-29.3-10.4a1 1 0 0 0-1 1v7.8c0 .5.5 1 1 1h29.3c.5 0 1-.5 1-1v-7.8c0-.6-.5-1-1-1H28.4Z" fill="#14171F"/><path d="M145.4 40.7H113a6.5 6.5 0 0 1 0-13h32.4a6.5 6.5 0 0 1 0 13Z" fill="#fff"/><path d="M145.4 41H113a6.9 6.9 0 0 1 0-13.7h32.4a6.9 6.9 0 0 1 0 13.8ZM113 28a6.2 6.2 0 0 0 0 12.4h32.4a6.2 6.2 0 0 0 0-12.4H113Z" fill="#14171F"/><path d="M137.5 61.5H113a6.5 6.5 0 0 1 0-13h24.5a6.5 6.5 0 0 1 0 13Z" fill="#fff"/><path d="M137.5 61.8H113a6.9 6.9 0 0 1 0-13.7h24.5a6.9 6.9 0 0 1 0 13.7Zm-24.5-13a6.2 6.2 0 0 0 0 12.4h24.5a6.2 6.2 0 0 0 0-12.4H113Z" fill="#14171F"/><path d="M43 79a2.8 2.8 0 1 0 0-5.5 2.8 2.8 0 0 0 0 5.5Z" fill="#fff"/><path d="M43 74.8a1.5 1.5 0 1 1 0 3 1.5 1.5 0 0 1 0-3Zm0-1.3a2.8 2.8 0 1 0 0 5.5 2.8 2.8 0 0 0 0-5.5ZM43 97.7c4 0 7-2 7-4.6 0-2.6-3-4.7-7-4.7-3.8 0-7 2-7 4.7 0 2.5 3.2 4.6 7 4.6Z" fill="#14171F"/><path d="M106.8 37a2.8 2.8 0 1 0 0-5.6 2.8 2.8 0 0 0 0 5.6Z" fill="#fff"/><path d="M106.8 32.7a1.5 1.5 0 1 1 0 3 1.5 1.5 0 0 1 0-3Zm0-1.3a2.8 2.8 0 1 0 0 5.6 2.8 2.8 0 0 0 0-5.6Z" fill="#14171F"/><path d="M106.8 57.8a2.8 2.8 0 1 0 0-5.6 2.8 2.8 0 0 0 0 5.6Z" fill="#fff"/><path d="M106.8 53.5a1.5 1.5 0 1 1 0 3 1.5 1.5 0 0 1 0-3Zm0-1.3a2.8 2.8 0 1 0 0 5.6 2.8 2.8 0 0 0 0-5.6Z" fill="#14171F"/><path d="M43 124.2a2.8 2.8 0 1 0 0-5.5 2.8 2.8 0 0 0 0 5.5Z" fill="#fff"/><path d="M43 120a1.5 1.5 0 1 1 0 3 1.5 1.5 0 0 1 0-3Zm0-1.3a2.8 2.8 0 1 0 0 5.5 2.8 2.8 0 0 0 0-5.5Zm95.3-87.3H120a2.8 2.8 0 0 0 0 5.6h18.2a2.8 2.8 0 0 0 0-5.6Zm-8.5 20.8h-9a2.8 2.8 0 0 0 0 5.6h9a2.8 2.8 0 0 0 0-5.6ZM49 125.9H37.2a1.5 1.5 0 0 0-1.1 2.6c.3.3.7.5 1 .5H49a1.5 1.5 0 0 0 0-3.1Z" fill="#14171F"/></g><g clip-path="url(#e)"><path d="M202.6 194.3H5.3v-.4l.3-.1h197.2l.1.2v.2h-.3Z" fill="#14171F"/></g><g clip-path="url(#f)"><path d="m95 152.8-1.7-.6C64 140.2 75 99.4 64.3 98c-2.3-.3-4 .8-5 2.8-1.3 2.3-2.7 1.6-2.7-.3 0-3.8 5.7-5.9 5.9-8 .1-2.2-7.1-6.8-8.2-8.5-1-1.7-.2-2.8 1.5-2 1.7 1 2.9 1.8 5.2 3 1-.6 2.4-.3 4 .4 0 0 .5-1 3.6.6 10 5.1 14.7 23 21.7 31.9a13 13 0 0 0 6.6 5c.6 1.5 1 3 1.2 4.6.5 5.2-.8 11.8-3.2 25.3Z" fill="#DBDFEA"/><path d="M95 153h-.2l-1.6-.5a32 32 0 0 1-17.6-17.6c-3.3-7.3-4.5-15.4-5.4-22-1.2-7.8-2.1-14-6-14.6-2-.2-3.5.6-4.6 2.6-1 1.8-1.9 1.7-2.2 1.6-.7-.1-1.1-1-1.1-2 0-2.4 1.9-4 3.6-5.4 1.1-1 2.2-1.9 2.3-2.7 0-1.2-2.9-3.6-5-5.3a18.2 18.2 0 0 1-3.2-3c-.6-.9-.6-1.8-.2-2.3.5-.5 1.3-.5 2.2 0l1.7 1 3.3 1.9c1.2-.7 2.8-.2 4 .4l.3-.2c.7-.3 1.9 0 3.5.8 6.4 3.3 10.5 11.6 14.6 19.6 2.4 4.7 4.6 9.1 7.2 12.4a12.6 12.6 0 0 0 6.6 4.9v.1c.6 1.6 1 3.1 1.2 4.8.5 5-.6 11.3-2.9 23.8l-.3 1.5a.3.3 0 0 1-.3.3ZM63.5 97.7h.8c4.3.6 5.2 7.1 6.4 15.3 2 13.3 4.7 31.6 22.7 39l1.2.4.2-1.2a95 95 0 0 0 2.8-23.5c-.1-1.6-.5-3-1-4.5-2.3-.6-4.5-2.3-6.6-5-2.6-3.3-4.9-7.8-7.3-12.5-4-8-8.1-16.1-14.3-19.3-2.5-1.3-3-.7-3.1-.7a.3.3 0 0 1-.4.1c-1.8-.8-3-1-3.8-.4a.3.3 0 0 1-.3 0c-1.5-.7-2.5-1.3-3.5-2l-1.7-1c-.6-.3-1.1-.3-1.4 0-.2.2-.2.8.3 1.5.4.6 1.6 1.7 3 2.8 2.6 2.1 5.3 4.3 5.2 5.9 0 1-1.2 2-2.5 3-1.6 1.4-3.4 3-3.4 5 0 .8.3 1.3.6 1.4.4 0 1-.2 1.5-1.3 1-2 2.6-3 4.6-3Zm1.8-12Z" fill="#14171F"/><path d="M64.8 87.5h-.1l-3.8-2.2a.3.3 0 0 1 .3-.6 155.1 155.1 0 0 0 4 2.5.3.3 0 0 1-.4.3Zm4.4 1H69a23.2 23.2 0 0 0-4.2-3 .3.3 0 0 1 .4-.3 23.7 23.7 0 0 1 4.3 2.9.3.3 0 0 1-.3.4Z" fill="#14171F"/><path d="M177.6 194.1h-52.7c.6-4.5.4-8.7-.4-12.5a48 48 0 0 0-3.5-10.4c-2.7-5.7-5.9-10.6-7.5-15a24 24 0 0 1-18.2 4.2 62.3 62.3 0 0 1-2-25.9c.7-4.1 1.8-8.1 3.6-11.6h3.4c5.5-.3 10.2-3 14.7-6.2 7.7-5.6 15-13 25.9-13.5a24.4 24.4 0 0 1 1.7 0c24.5.3 44.5 28.4 35 91Z" fill="#fff"/><path d="M177.6 194.5H124.7a.3.3 0 0 1-.2-.4c.6-4.2.5-8.2-.3-12.4-.7-3.3-1.9-6.7-3.5-10.3-1.2-2.6-2.5-5-3.7-7.2a74.4 74.4 0 0 1-3.7-7.5 24.4 24.4 0 0 1-18.2 4l-.1-.2a62.6 62.6 0 0 1-2-26 37.3 37.3 0 0 1 3.8-12h.2c1 .1 2.2.2 3.2.1a28 28 0 0 0 14.6-6.1l4.2-3.2c6.3-5 12.9-10 21.8-10.5h1.8c9.3.1 17.5 4.2 23.9 11.7a61.2 61.2 0 0 1 12.3 30 161.5 161.5 0 0 1-1 49.9h-.2Zm-52.4-.7h52.1c2.8-18.8 3.1-35.4.9-49.2a60.5 60.5 0 0 0-12.2-29.7 30.6 30.6 0 0 0-23.4-11.4h-1.7c-8.8.4-15.2 5.4-21.5 10.3a166.4 166.4 0 0 1-4.2 3.2c-2.7 1.9-5 3.2-7 4.2a21.6 21.6 0 0 1-11 2c-1.7 3.2-2.9 7-3.6 11.4a62 62 0 0 0 2 25.5 23.6 23.6 0 0 0 17.8-4.2.3.3 0 0 1 .3 0l.1.2c1 2.4 2.3 5 3.8 7.8 1.2 2.3 2.5 4.6 3.7 7.2 1.7 3.7 2.8 7.1 3.5 10.5.8 4 1 8 .4 12.2Z" fill="#14171F"/><path d="m113.5 156.6-.3-.2a55.1 55.1 0 0 1-3.6-23.8.3.3 0 0 1 .4 0v.3a54.4 54.4 0 0 0 3.8 23.5l-.1.1h-.2Z" fill="#14171F"/><path d="M193.4 150.4c1.6 14.5-.6 43.7-15.8 43.7-21.4 0-30.2-16.3-40.8-15.8-7 .3-8.6 2.2-13 3.5-3.4 1-7.6.4-8.8 1.3-1.3 1-1.5 3.3-1.7 4-.2.8.1 3-1.7 2.9-1.7-.2-1.3-6.4-1-8-2 2-2.8 4.5-3 6-.2 1-1.4 3-3.1 1.1-1.5.5-2.4-2.2-1.1-5.4l-3.2.6c-2.5.5-2.9-1.6 0-2.8l4.7-1.7c1.3-1.6 4.3-3.2 7-4.4l4-1.6.6-.3c5.4-2.2 20.5-13.5 43.3-10.4a52.8 52.8 0 0 0-9.2-25l-8.5-35c1.8 0 3.8.2 6 .4a59 59 0 0 1 47.5 37.4c-1.2 1.8-3.2 4-3.2 4 .4 1.5.7 3.3 1 5.5Z" fill="#fff"/><path d="M192.4 145c.4 1.3.7 3.2 1 5.4l-4.6-2.3c-.2-4.6-1.4-10-4-12.1-2.8-2.1-13-8.2-13.5-12.9-.6-4.7-3.4-10.2-11.7-13-3.6-1.3-7.7-6-11.5-6.6a59 59 0 0 1 47.5 37.4c-1.2 1.8-3.2 4-3.2 4Z" fill="#DBDFEA"/><path d="M177.6 194.5c-12.5 0-20.8-5.6-27.5-10-4.8-3.3-8.9-6-13.3-5.9-4.8.2-7 1.2-9.3 2.2a22 22 0 0 1-9 2c-1.5.1-2.8.2-3.4.6-1 .7-1.2 2.4-1.4 3.3v.5l-.2.6c0 .7 0 1.7-.7 2.2-.3.3-.7.4-1.2.3-.3 0-.6-.2-.9-.6-.8-1.3-.8-4.7-.5-6.6-1.6 1.9-2.1 4-2.3 5 0 .7-.7 1.8-1.6 2-.5.2-1.1.2-2-.6-.4 0-.8 0-1.2-.4-.7-.8-1-2.6-.2-5l-2.6.5c-1.5.3-2.2-.3-2.4-.8-.2-.8.4-1.8 2.2-2.6l4.7-1.7c1-1.3 3.4-2.8 7-4.4l4-1.6.5-.3 3.7-1.8c7.3-3.9 20.7-11 39.5-8.6-.2-2-.4-4-.8-5.9-1.3-6.1-4-12-8.4-18.5v-.3a.3.3 0 0 1 .4-.2l.2.1a52.8 52.8 0 0 1 8.4 18.7 42.8 42.8 0 0 1 .7 6.7.3.3 0 0 1-.2 0 62 62 0 0 0-39.5 8.5l-3.7 2-.6.1-4 1.7a20.3 20.3 0 0 0-7 4.4 170 170 0 0 0-4.6 1.7c-1.6.6-2 1.4-1.9 1.8.1.3.7.6 1.6.4a38 38 0 0 0 3.5-.6l.1.2v.2c-1 2.2-.7 4.1 0 4.8.1.3.4.3.7.2h.2l.1.1c.5.6 1 .8 1.4.7.6-.2 1-1.1 1.2-1.7.2-1 .8-3.9 3.2-6l.1-.2h.2a.3.3 0 0 1 .2.4c-.4 1.4-.6 6 .3 7.2 0 .2.2.3.4.3l.7-.1c.4-.3.5-1.2.5-1.8a5 5 0 0 1 .2-1c.1-1.1.5-3 1.7-3.9.7-.5 2-.5 3.7-.6 1.7 0 3.6-.2 5.3-.7l3.4-1.3c2.4-1 4.7-2 9.6-2.2 4.6-.2 8.8 2.6 13.7 5.9a46 46 0 0 0 27 9.9c3.7 0 6.7-1.7 9.2-5 8-10.7 7.7-35.7 5.4-43.7a.3.3 0 0 1 0-.3s2-2.2 3.1-4a57.4 57.4 0 0 0-53.1-37.4h-.2a.3.3 0 0 1 0-.5h.2a57.9 57.9 0 0 1 42.4 19.4A63 63 0 0 1 196 141a43 43 0 0 1-3.2 4c2.4 8.3 2.7 33.3-5.5 44.1a11.7 11.7 0 0 1-9.6 5.3Z" fill="#14171F"/><path d="M118.3 154.6c-7.5-14.5 11.3-23 21.3-7.8 4.7 7 7 13.7 6.5 19.7-1 14.3-16.5 11.9-19.6 4.2-2-4.9-5.5-10.7-8.2-16Z" fill="#DBDFEA"/><path d="M136.5 177.2c-4.4 0-8.8-2.6-10.3-6.3-1.3-3.3-3.3-7-5.3-10.6l-3-5.5a13 13 0 0 1-1.4-9 9.3 9.3 0 0 1 4.4-5.8 12 12 0 0 1 9.4-1c3.7 1.1 7 3.7 9.6 7.6 4.8 7.3 7 14 6.6 20-.6 8.4-6 10.1-8.3 10.5l-1.7.1Zm-18-22.7 3 5.5c2 3.6 4 7.4 5.3 10.6 1.6 4 6.6 6.6 11.3 5.8 4.5-.7 7.3-4.3 7.7-10 .4-5.7-1.8-12.3-6.5-19.4a17 17 0 0 0-9.2-7.4c-3.1-.9-6.3-.5-8.8 1-3.5 2-6.3 6.9-2.8 13.9Z" fill="#14171F"/><path d="M126.1 159.9c.7-.3.6-1.8 0-3.3-.8-1.5-2-2.5-2.6-2.2-.7.4-.6 1.8 0 3.3.8 1.6 2 2.5 2.6 2.2Z" fill="#14171F"/><path d="M125.8 160.3c-.8 0-1.8-1-2.5-2.4-.4-.8-.6-1.6-.6-2.3 0-.7.2-1.3.6-1.5.5-.2 1 0 1.6.5a5.8 5.8 0 0 1 2 4.1c0 .7-.2 1.3-.6 1.5a1 1 0 0 1-.5 0Zm-2-5.6h-.2c-.2.1-.3.5-.3 1s.2 1.2.6 1.9c.7 1.5 1.7 2.2 2 2 .3-.1.4-.5.4-1s-.3-1.2-.6-1.9-.7-1.3-1.2-1.6c-.3-.3-.5-.4-.7-.4ZM135.2 155.8c.7-.4.6-1.9 0-3.4-.8-1.5-2-2.4-2.6-2.1-.7.3-.6 1.8 0 3.3.8 1.5 2 2.5 2.6 2.2Z" fill="#14171F"/><path d="M135 156.1c-.4 0-.8-.1-1.2-.5-.5-.4-1-1-1.4-1.8-.8-1.8-.8-3.4 0-3.8.5-.2 1 0 1.6.4.5.5 1 1.1 1.4 1.9.4.8.6 1.5.6 2.2 0 .8-.2 1.3-.6 1.5a1 1 0 0 1-.5.1Zm-2.1-5.5h-.2c-.4.2-.5 1.4.3 2.9.3.7.7 1.2 1.2 1.6.4.3.7.4.9.4.2-.1.3-.5.3-1s-.2-1.2-.6-2c-.3-.6-.7-1.2-1.2-1.6l-.7-.3Zm1.7 20.5a5 5 0 0 1-.6 0c-2.5-.4-4.6-2.4-5.8-5.7a.3.3 0 0 1 .4-.4l.2.2c1.1 3 3 5 5.3 5.2 1.6.2 3.3-.6 4.3-2 1.4-2 1.4-5 0-7.8a.3.3 0 0 1 .5-.3c1.6 3 1.6 6.2 0 8.4a5.3 5.3 0 0 1-4.3 2.4Z" fill="#14171F"/><path d="M177.6 194.1c-6.4 0-11.7-1.4-16.2-3.4-10.6-4.8-17.1-12.7-24.6-12.4a21.1 21.1 0 0 0-8.8 2l-4.1 1.5c-3.5 1-7.7.4-9 1.3-1.2 1-1.4 3.3-1.6 4-.2.8.1 3-1.7 2.9-1.7-.2-1.3-6.4-1-8-2 2-2.8 4.5-3 6-.2 1-1.4 3-3.1 1.1-1.5.5-2.4-2.2-1.1-5.4l-3.2.6c-2.5.5-2.9-1.6 0-2.8l4.7-1.7c1.3-1.6 4.3-3.2 7-4.4-1.3-1.3-1.7-3.8-.6-4.3 1-.5 2 1.9 4.6 2.7l.6-.3c5.4-2.2 20.5-13.5 43.3-10.4a42 42 0 0 0-.8-6.3 43 43 0 0 0 33.4-11.8c3 10.5 6.8 49.1-14.8 49.1Z" fill="#DBDFEA"/><path d="M177.6 194.5a39 39 0 0 1-16.3-3.5c-4.3-2-8-4.4-11.2-6.6-4.8-3.2-8.9-6-13.3-5.8-1.3 0-2.5.2-3.7.4a20.8 20.8 0 0 0-5.6 1.8c-1 .5-2.2 1-3.5 1.3-1.8.6-3.7.7-5.4.7-1.6.1-2.9.2-3.5.6-1 .7-1.2 2.4-1.4 3.3v.5l-.2.6c0 .7 0 1.7-.7 2.2-.3.3-.7.4-1.2.3-.3 0-.6-.2-.9-.6-.8-1.3-.8-4.7-.5-6.6-1.6 2-2.1 4-2.3 5 0 .7-.7 1.8-1.6 2-.5.2-1.1.2-2-.6-.4 0-.8 0-1.2-.4-.7-.8-1-2.6-.2-5l-2.6.6c-1.5.2-2.2-.4-2.4-1-.2-.7.4-1.7 2.2-2.5l4.7-1.7c1-1.2 3.3-2.7 6.6-4.2-.8-1-1.2-2.3-1-3.4 0-.5.3-.9.7-1 .8-.4 1.4.2 2.2.8a8 8 0 0 0 2.6 1.7l.4-.2 3.7-1.8c7.3-3.9 20.7-11 39.5-8.6a42 42 0 0 0-.8-6.2.3.3 0 0 1 .3-.1 42.7 42.7 0 0 0 33.5-11.8.3.3 0 0 1 .2.2c2 7.3 5.3 32.2-3.4 43.7a14 14 0 0 1-11.7 5.9ZM137.3 178c4.4 0 8.5 2.7 13.2 5.9 3.2 2.1 6.8 4.6 11 6.5a38.4 38.4 0 0 0 16 3.4c4.8 0 8.5-1.9 11.3-5.5 4.5-6 5.5-15.7 5.6-22.8 0-7.9-1-15.7-2.2-19.9a41.6 41.6 0 0 1-32.8 11.6 43 43 0 0 1 .6 6.2h-.2a61.9 61.9 0 0 0-39.5 8.5l-3.7 2a52.8 52.8 0 0 1-.8.2c-1.3-.4-2.2-1.2-3-1.9-.7-.6-1-1-1.4-.8-.3.1-.4.4-.4.7a4 4 0 0 0 1.1 3l.1.2a.3.3 0 0 1-.2.4 20.3 20.3 0 0 0-7 4.4l-4.6 1.7c-1.6.7-2 1.4-1.9 1.8.1.3.7.6 1.6.4a38.5 38.5 0 0 0 3.5-.6.3.3 0 0 1 0 .4c-.8 2.2-.6 4.1 0 4.8.2.3.5.3.8.2a.3.3 0 0 1 .3.1c.5.6 1 .8 1.4.7.6-.2 1-1.1 1.2-1.7.2-1 .8-3.8 3.2-6a.3.3 0 0 1 .3-.1.3.3 0 0 1 .2.4c-.4 1.3-.6 5.8.3 7.1 0 .2.2.3.4.4.3 0 .5 0 .7-.2.4-.3.5-1.2.5-1.8v-.6l.2-.5c.1-1 .5-2.9 1.7-3.8.7-.5 2-.5 3.7-.6 1.7 0 3.6-.2 5.3-.7a30 30 0 0 0 3.4-1.3c.3 0 .5-.2.7-.3a21.3 21.3 0 0 1 9.4-2Z" fill="#14171F"/><path d="M140.9 103.2c-1 12.5-12.4 21.4-19 21.4-4.8 0-7.8-2.9-7-7.9 7.8-5.6 15.1-13 26-13.5Z" fill="#DBDFEA"/><path d="M121.8 125c-2.5 0-4.6-1-6-2.5-1.2-1.4-1.6-3.5-1.1-5.9v-.2c1.5-1 3-2 4.3-3.1 6.3-5 12.9-10 21.8-10.5h.2v.1a.3.3 0 0 1 .2.3c-.4 5.7-3 11.2-7.4 15.6-3.8 3.8-8.4 6.1-12 6.1Zm-6.5-8.1c-.4 2.1 0 4 1 5.2 1.2 1.4 3.2 2.2 5.5 2.2 3.4 0 7.9-2.4 11.5-6 4.2-4.1 6.7-9.4 7.2-14.8-8.6.6-15 5.5-21.1 10.3l-4.1 3Z" fill="#14171F"/><path d="M119.8 115.7 118 103c-4.8 1.7-15.2-2.2-12-14.8 3.3-12.6 14.4-11.6 16.8-9.5 4 3.5 2.3 10.6 1.9 11.5 3.6-2.9 5.7 2.5 1.4 4.1l8.1 14-14.4 7.5Z" fill="#DBDFEA"/><path d="M119.8 116a.3.3 0 0 1-.3-.3l-1.7-12.4c-2.6.7-6.5.2-9.3-2.5-3.2-2.9-4.2-7.4-2.8-12.8 1.8-7 5.9-9.6 9-10.5 3.4-1 7-.4 8.3.9 2.2 1.9 2.7 4.8 2.7 7 0 1.5-.2 3-.5 4 1-.5 1.8-.6 2.4-.2.8.4 1.3 1.3 1.2 2.3 0 1.2-.9 2.3-2.2 2.9a823.3 823.3 0 0 0 8 13.8.3.3 0 0 1-.7 0 764.5 764.5 0 0 1-8-14.2h.1c1.3-.6 2.1-1.5 2.2-2.6 0-.7-.3-1.4-.9-1.6-.6-.4-1.5-.2-2.4.6a.3.3 0 0 1-.5-.4c.2-.5.7-2.4.6-4.7 0-2-.4-4.7-2.4-6.5-1-.9-4.2-1.7-7.7-.7-3 1-6.8 3.4-8.5 10-1.8 6.7.4 10.3 2.5 12.2a9.6 9.6 0 0 0 9.2 2.2.3.3 0 0 1 .2.2v.1l1.8 12.9a.3.3 0 0 1-.3.3Z" fill="#14171F"/><path d="M118.2 89.8c.2-.9-.9-2-2.5-2.4-1.6-.5-3.2-.2-3.4.7-.3.9.9 2 2.5 2.4 1.6.5 3.1.2 3.4-.7Z" fill="#fff"/><path d="M116.2 91a5.6 5.6 0 0 1-3.6-1.3c-.6-.6-.8-1.2-.6-1.7.1-.5.6-1 1.4-1a5 5 0 0 1 2.4 0c1.8.6 3 1.8 2.7 2.9-.2.7-1.1 1.2-2.3 1.2Zm-2-3.5h-.7c-.5.2-.8.4-.9.7 0 .3 0 .7.5 1 .4.4 1 .8 1.8 1 1.5.5 2.8.1 3-.5.1-.6-.7-1.6-2.3-2a5 5 0 0 0-1.4-.2Z" fill="#14171F"/><path d="M109 87.3c.3-1-.9-2-2.5-2.5-1.6-.4-3.1-.1-3.4.7-.2 1 .9 2 2.5 2.5 1.6.4 3.2.1 3.4-.7Z" fill="#fff"/><path d="M107 88.5c-.4 0-1 0-1.5-.2-1.8-.6-3-1.8-2.7-2.9.2-.5.7-.9 1.4-1a5 5 0 0 1 2.4.1 5 5 0 0 1 2.1 1.2c.6.5.8 1.1.6 1.6-.1.6-.6 1-1.4 1.1a4 4 0 0 1-.8.1Zm-2-3.6-.6.1c-.5.1-.9.3-1 .6-.1.6.7 1.6 2.3 2 .7.3 1.5.3 2 .2.6-.1 1-.3 1-.6s0-.7-.5-1c-.4-.5-1-.8-1.8-1a5 5 0 0 0-1.3-.3Z" fill="#14171F"/><path d="M104.2 86.7a.8.8 0 1 0 0-1.7.8.8 0 0 0 0 1.7Z" fill="#14171F"/><path d="M104.2 87h-.3a1.2 1.2 0 0 1 .6-2.3 1.2 1.2 0 0 1-.3 2.3Zm0-1.7a.5.5 0 0 0-.1 1 .5.5 0 1 0 .1-1ZM113.2 89.2a.8.8 0 1 0 0-1.7.8.8 0 0 0 0 1.7Z" fill="#14171F"/><path d="M113.2 89.5a1.2 1.2 0 0 1-.9-1.9 1.2 1.2 0 0 1 1.3-.4 1.2 1.2 0 0 1 .8 1 1.2 1.2 0 0 1-1.2 1.3Zm0-1.7a.5.5 0 1 0 0 1 .5.5 0 0 0 0-1Zm-5.7 4.5h-.2c-1-.9-1.4-1.6-1-2.2.4-1 2.4-1.1 3.5-1l.2.1v.3a.3.3 0 0 1-.3.3c-1.3-.2-2.7 0-2.9.6-.1.3.2.8.9 1.3a.3.3 0 0 1 0 .6h-.2Zm3.7 4c0 1.5 2 2.5 3.9 2 1.7-.4 3-2 2.6-3.5-.3-1.5-2-2.5-3.6-.4-.6.9-3 .3-3 2Z" fill="#14171F"/><path d="M114.1 98.8a4 4 0 0 1-2.4-.8 2 2 0 0 1-.9-1.6c0-1.3 1.2-1.5 2-1.7.4-.1.9-.2 1-.4 1-1.5 2.1-1.5 2.6-1.4.8.2 1.4.9 1.6 1.8.4 1.7-1 3.5-2.8 4h-1Zm2-5.3c-.6 0-1.2.4-1.8 1.1-.3.5-.8.6-1.4.7-.9.2-1.4.4-1.4 1s.3 1 .6 1.2c.7.6 1.9.8 2.9.5 1.5-.4 2.7-1.9 2.4-3.2-.2-.6-.6-1.1-1.1-1.3h-.3Zm2 9.4c2-.5 3-1.7 3.6-2.3 1.2-1.3 2.2-.7 1.5 0-1 1.3-1.9 2-2 3.1 0 1.2-.6 4.2-2.4 4.5l-.7-5.3Z" fill="#14171F"/><path d="M118.8 108.5a.3.3 0 0 1-.3-.3l-.8-5.3a.3.3 0 0 1 .3-.3c1.9-.5 3-1.7 3.5-2.2.9-1 1.6-1 2-.7.3.2.4.7 0 1.2l-.7.7c-.7.8-1.2 1.4-1.2 2.2 0 1.2-.7 4.4-2.8 4.7Zm-.4-5.4.7 4.6c.6-.2 1-1 1.3-1.6.3-.8.5-1.8.5-2.4.1-1 .7-1.7 1.5-2.5a32 32 0 0 0 .7-1h-.1c-.2 0-.6.1-1 .6-.6.6-1.7 1.8-3.6 2.3ZM114.1 82c-3.6 2.3-10.2-.2-6-6.6a16 16 0 0 1 13-6.8c3.7-.2 5.7 3.4 2.6 6.4 3.9-1.2 6.4 3.4 2.9 6.5 5.3 0 4.8 6.6 1.2 8.3-.4-.7-2.1-.5-3.1.4-1.5-.2-3-1.2-2.8-3.7-2.8 1.1-7.2-.2-7.8-4.5Z" fill="#14171F"/><path d="M124.7 90.4c-2-.3-3.1-1.6-3.2-3.6-1.5.5-3.3.3-4.8-.5a5.7 5.7 0 0 1-2.8-3.9c-2.2 1.1-5 .8-6.5-.7-1.5-1.6-1.3-4 .4-6.6 2.8-4.3 7.4-6.7 13.3-7 1.9 0 3.5.8 4.2 2.3.5 1.3.2 2.7-.7 4 1.5-.2 2.8.5 3.5 1.8.7 1.2.8 3.1-.7 4.9 2.5.3 3.2 2.1 3.3 3 .6 2.2-.7 5-2.7 5.9a.3.3 0 0 1-.4-.1c-.1-.2-.4-.3-.7-.3-.5 0-1.4.2-2 .8h-.2Zm-2.8-4.4a.3.3 0 0 1 .2.1.3.3 0 0 1 .1.3c-.2 2.3 1.1 3.1 2.4 3.4.7-.7 1.7-1 2.4-.8.4 0 .7.1 1 .3 1.6-1 2.6-3.2 2.1-5.1-.4-1.6-1.6-2.5-3.4-2.5h-.1a.3.3 0 0 1-.3-.2.3.3 0 0 1 0-.4c2-1.6 1.9-3.5 1.3-4.6-.8-1.3-2.3-1.8-3.8-1.3a.3.3 0 0 1-.4-.1v-.4c1.3-1.3 1.8-2.8 1.3-4-.5-1.3-2-2-3.6-2-5.6.4-10 2.7-12.8 6.8-1.5 2.4-1.7 4.4-.4 5.7 1.4 1.4 4.2 1.6 6 .4a.3.3 0 0 1 .5.1v.2a5 5 0 0 0 2.6 3.8 5.6 5.6 0 0 0 4.9.3Z" fill="#14171F"/><path d="M123.8 91.6a.3.3 0 0 1-.3-.5s.4-.7 1-1.2a.3.3 0 0 1 .3 0h.1a.3.3 0 0 1 0 .2.3.3 0 0 1 0 .3c-.5.3-.8 1-.8 1a.3.3 0 0 1-.3.2Zm3.2 1a.3.3 0 0 1-.4-.3v-.1c.2-.4 0-1-.4-1.4a.3.3 0 0 1 .3-.5c.7.5 1 1.5.8 2.1l-.2.2h-.1Zm-.9 1.6c-.7.3-1.6 1.1-.3 2.6 1.3 1.4 4.3 1.4 4.7-1.3.4-2.2-1.6-3.1-2.4-2.7-.4.6-1 1.1-2 1.4Z" fill="#14171F"/><path d="M128 98c-.9 0-1.8-.3-2.4-1-.7-.7-1-1.3-.7-2 .1-.6.7-1 1.1-1.1.8-.2 1.4-.7 1.8-1.3l.1-.1c.6-.3 1.4 0 2 .4.8.6 1.1 1.6 1 2.7A2.8 2.8 0 0 1 128 98Zm-1.8-3.5c-.3.1-.6.4-.7.7-.1.4 0 .9.5 1.4.7.7 1.8 1 2.7.7.8-.2 1.4-.9 1.5-1.8.2-1.2-.3-1.8-.7-2-.4-.4-1-.5-1.2-.4a4 4 0 0 1-2 1.4Zm-15.5 87.9a.3.3 0 0 1-.3-.1V182c.3-1.5 2.3-3.3 5-3.8h.2a.3.3 0 0 1 .2.2v.1a.3.3 0 0 1-.2.3c-2.2.4-4.3 2-4.6 3.3a.3.3 0 0 1-.3.3Zm-6.2 7h-.2l-.1-.2c-.4-2.4 1.1-6.6 2.3-8.4a8.1 8.1 0 0 1 4.4-3.2.3.3 0 0 1 .3.3.3.3 0 0 1 0 .2.3.3 0 0 1-.2.2 7.5 7.5 0 0 0-4 2.8 15.9 15.9 0 0 0-2.3 8.2.3.3 0 0 1-.2.1Zm-1.1-5.4a.3.3 0 0 1-.3-.5l.5-1.2 1-2.7a.3.3 0 0 1 .6.3 15 15 0 0 0-1 2.6l-.5 1.3-.1.1h-.2Zm8.5-8.3h-.2a.3.3 0 0 1 0-.6 69.7 69.7 0 0 1 4.4-1.6.3.3 0 0 1 .1.3.3.3 0 0 1-.2.3 70 70 0 0 0-4 1.6Zm54.5-10.4h-.2a22.3 22.3 0 0 0-6.7-2 .3.3 0 0 1 0-.2v-.1a.3.3 0 0 1 .3-.2 22.6 22.6 0 0 1 6.9 2 .3.3 0 0 1-.3.5ZM100.3 123a85 85 0 0 1-6.3 11.3 2 2 0 0 1-.7.3h-1c-.5-.3-.8-1-.8-1.5 0-.6.2-1.1.3-1.6a2852.8 2852.8 0 0 0 1.4-5.3c0-.7-.4-1.3-1-1.5-.8-.2-1.5.4-2 1-.4.7-.6 1.5-1 2-.5.7-1.4 1-2 .6-.8-.5-.6-1.6-.3-2.4.9-2.8 2-5.4 3.5-7.9a13 13 0 0 0 6.5 5h3.4Z" fill="#14171F"/><path d="M92.9 134.9c-.3 0-.5 0-.7-.2-.6-.3-1-1-1-1.7l.3-1.8 1-3.3v-.1c.3-.6.4-1.2.4-1.7s-.3-1-.8-1.2c-.6-.1-1.2.4-1.6 1l-.4.7-.7 1.3c-.6.7-1.7 1.1-2.5.6-.7-.5-.8-1.5-.4-2.8a44.5 44.5 0 0 1 3.8-8.1.3.3 0 0 1 .3 0c2.1 2.7 4.2 4.3 6.4 5a20 20 0 0 0 3.4 0 .3.3 0 0 1 .1.5 85.1 85.1 0 0 1-6.3 11.3 2.3 2.3 0 0 1-1.3.5Zm-1-10.6h.3c.8.2 1.3 1 1.3 1.7a5 5 0 0 1-.3 2v.1l-1 3.3c-.2.5-.4 1-.4 1.6 0 .5.3 1 .7 1.1.2.2.5.1.7 0 .2 0 .4 0 .6-.2.4-.3.7-.8 1-1.3a85.3 85.3 0 0 0 5-9.3 20.6 20.6 0 0 1-3-.1c-2.2-.6-4.3-2.2-6.4-4.7a43.9 43.9 0 0 0-3.2 7.4c-.2.6-.5 1.6.1 2 .5.4 1.2 0 1.6-.5l.6-1 .5-1c.4-.6 1-1.1 1.8-1.1Zm85.7 69.8c-6.4 0-11.7-1.4-16.2-3.5 1.2-.2 2.3-.7 3.5-1 3.5-.8 7 .2 10.6.4 3.6.2 7.7-.7 9.3-3.9 2.5-4.7-2-10.8.1-15.6 1-2.2 3-3.6 4.3-5.6 2-3.4 1.2-7.8.3-11.7-.3-1.7-.6-3.4-.7-5.1l3.6-3.1c3 10.5 6.8 49.1-14.8 49.1Z" fill="#14171F"/><path d="M177.6 194.4a39 39 0 0 1-16.4-3.6v-.2a.3.3 0 0 1 .2-.3c.6 0 1.2-.3 1.8-.5l1.6-.5c2.5-.6 5.1-.3 7.6 0 1 .2 2 .3 3.1.3 1.6.1 7 .1 9-3.6 1.3-2.3.7-5 .1-7.7-.5-2.7-1.1-5.5 0-8 .6-1.2 1.5-2.2 2.4-3.1l2-2.4c2-3.4 1-7.7.2-11.5a28.3 28.3 0 0 1-.6-5.5 41.1 41.1 0 0 0 3.8-3.1.3.3 0 0 1 .3.2c2 7.3 5.3 32.2-3.4 43.7a14 14 0 0 1-11.7 5.8Zm-15.2-3.7c5 2 9.9 3.1 15.2 3.1 4.7 0 8.4-1.9 11.2-5.6 4.5-6 5.5-15.6 5.6-22.7 0-7.9-1-15.7-2.2-20l-3 2.8c0 1.3.2 2.8.6 4.8.9 4 1.8 8.4-.3 12-.6 1-1.3 1.7-2 2.5-1 1-1.8 1.9-2.3 3-1 2.3-.5 5 0 7.5.7 2.8 1.3 5.7 0 8.2-1.5 2.8-5.1 4.3-9.7 4l-3.2-.3a21 21 0 0 0-7.3 0 21.2 21.2 0 0 0-2.6.7Zm-28-14-.4.8-1 1.2a21 21 0 0 0-5 1.5l3.8-4.5a1.5 1.5 0 0 1 2.6 1Z" fill="#14171F"/><path d="M128 180.5a.3.3 0 0 1-.3-.3v-.2l3.8-4.5a1.8 1.8 0 0 1 2.8 2.2l-1 1.2h-.2a20.7 20.7 0 0 0-5 1.6Zm4.9-5a1.1 1.1 0 0 0-.9.4l-2.9 3.5c1-.4 2.3-.8 3.8-1l.9-1a1.1 1.1 0 0 0 .1-1.3 1.1 1.1 0 0 0-1-.6Z" fill="#14171F"/></g><g clip-path="url(#g)"><path d="M140.1 191.8v.4a2 2 0 0 1-1.9 2H65.4a2 2 0 0 1-2-2v-.4a2 2 0 0 1 2-1.9h72.8a2 2 0 0 1 2 2Z" fill="#DBDFEA"/><path d="M65.4 194.3h72.8a2.1 2.1 0 0 0 2.1-2.1v-.4a2.1 2.1 0 0 0-2.1-2.1H65.4a2.1 2.1 0 0 0-2.2 2.1v.4a2.1 2.1 0 0 0 2.2 2Zm72.8-4.2a1.8 1.8 0 0 1 1.8 1.7v.4a1.8 1.8 0 0 1-1.8 1.7H65.4a1.8 1.8 0 0 1-1.8-1.7v-.4a1.8 1.8 0 0 1 1.8-1.7h72.8Z" fill="#14171F"/><path d="M20.7 140.3h72.8c1 0 2 1 2.3 2l10.6 49.8c.2 1-.5 2-1.6 2H32c-1 0-2.1-1-2.3-2L19 142.3c-.2-1 .5-2 1.6-2Z" fill="#DBDFEA"/><path d="M32 194.2h72.8a1.7 1.7 0 0 0 1.4-.6 1.8 1.8 0 0 0 .3-1.6L96 142.3a2.7 2.7 0 0 0-2.5-2.1H20.7a1.7 1.7 0 0 0-1.4.6 1.8 1.8 0 0 0-.4 1.5l10.6 49.8a2.7 2.7 0 0 0 2.5 2.1Zm61.5-53.7c1 0 2 .8 2.1 1.8l10.6 49.8a1.5 1.5 0 0 1-.3 1.3 1.4 1.4 0 0 1-1 .5H32c-1 0-2-.9-2.1-1.9l-10.6-49.7a1.5 1.5 0 0 1 .3-1.3 1.4 1.4 0 0 1 1-.5h72.9Z" fill="#14171F"/><path d="M71.8 167.6 71 165a1.7 1.7 0 0 0-1.6-1.3h-15a1 1 0 0 0-1 1.2l.8 2.6a1.7 1.7 0 0 0 1.7 1.4h15a1 1 0 0 0 1-1.3Z" fill="#fff"/><path d="M55.9 169h15a1.2 1.2 0 0 0 1.1-1.4l-.8-2.6a1.9 1.9 0 0 0-1.8-1.5h-15a1.2 1.2 0 0 0-1 .4 1.2 1.2 0 0 0-.2 1l.8 2.7A1.9 1.9 0 0 0 56 169Zm15.7-1.3a.8.8 0 0 1-.4 1H55.8a1.5 1.5 0 0 1-1.4-1.2l-.8-2.6a.8.8 0 0 1 .8-1h15a1.5 1.5 0 0 1 1.4 1.2l.8 2.6Z" fill="#14171F"/></g><g clip-path="url(#h)"><path d="M140.8 192v.3c0 1.1-.9 2-2 2H65c-1 0-2-.9-2-2v-.3c0-1.1 1-2 2-2h73.8c1.1 0 2 .9 2 2Z" fill="#DBDFEA"/><path d="M138.8 194.6H65c-1.3 0-2.3-1-2.3-2.3v-.3c0-1.3 1-2.3 2.3-2.3h73.8c1.3 0 2.3 1 2.3 2.3v.3c0 1.3-1 2.3-2.3 2.3ZM65 190.3c-1 0-1.6.8-1.6 1.7v.3c0 1 .7 1.7 1.6 1.7h73.8c1 0 1.7-.8 1.7-1.7v-.3c0-1-.8-1.7-1.7-1.7H65Z" fill="#14171F"/><path d="M19.7 139.7h73.8c1 0 2.1.9 2.4 2l10.7 50.5c.2 1.1-.5 2-1.6 2H31.2c-1.1 0-2.2-.9-2.4-2l-10.7-50.5c-.2-1.1.5-2 1.6-2Z" fill="#DBDFEA"/><path d="M105 194.5H31.2a3 3 0 0 1-2.7-2.2l-10.7-50.6a2 2 0 0 1 .4-1.7c.3-.4.9-.7 1.5-.7h73.8a3 3 0 0 1 2.7 2.3l10.7 50.6a2 2 0 0 1-.4 1.7c-.3.4-.9.6-1.5.6ZM19.7 140c-.4 0-.8.2-1 .4-.3.3-.4.7-.3 1.2l10.7 50.6c.2 1 1.2 1.7 2 1.7H105c.4 0 .8-.2 1-.5.2-.3.3-.7.2-1.1l-10.7-50.6c-.2-1-1-1.7-2-1.7H19.7Z" fill="#14171F"/><path d="m71.5 167.4-.8-2.7a1.7 1.7 0 0 0-1.6-1.3H53.9a1 1 0 0 0-.8.3 1 1 0 0 0-.2 1l.8 2.6a1.7 1.7 0 0 0 1.7 1.4h15.1a1 1 0 0 0 1-1.3Z" fill="#fff"/><path d="M55.4 169a2 2 0 0 1-2-1.6l-.8-2.7a1.4 1.4 0 0 1 0-.8 1.3 1.3 0 0 1 .8-.8H69c1 0 1.8.6 2 1.5l.8 2.7a1.4 1.4 0 0 1-.4 1.3 1.4 1.4 0 0 1-1 .4H55.4Zm-2.2-4.5.8 2.7c.1.7.7 1.1 1.4 1.1h15.1a.7.7 0 0 0 .5-.2.7.7 0 0 0 .2-.6l-.8-2.7c-.1-.6-.7-1.1-1.3-1.1H53.9c-.2 0-.4 0-.5.2a.7.7 0 0 0-.2.6Z" fill="#14171F"/></g><g clip-path="url(#i)"><path d="M29.5 188.7c9.6 0 17.4-5.4 17.4-12 0-6.7-7.8-12-17.4-12-9.5 0-17.3 5.3-17.3 12 0 6.6 7.8 12 17.3 12Z" fill="#14171F"/><path d="M29.5 189c-9.7 0-17.6-5.5-17.6-12.3 0-6.8 8-12.4 17.6-12.4 9.8 0 17.7 5.6 17.7 12.4 0 6.8-8 12.4-17.7 12.4Zm0-24c-9.3 0-17 5.2-17 11.7 0 6.5 7.7 11.7 17 11.7 9.4 0 17-5.2 17-11.7 0-6.5-7.6-11.7-17-11.7Z" fill="#14171F"/><path d="M12.2 176.2H6c-2 0-3.6-1.6-3.6-3.6V96c0-2 1.6-3.5 3.5-3.5H23a.3.3 0 0 1 .2.5l-.2.1H5.8A2.9 2.9 0 0 0 3 96v76.6c0 1.6 1.3 3 2.9 3h6.3a.3.3 0 0 1 0 .6Z" fill="#14171F"/><path d="M29.5 188c9.6 0 17.4-5.5 17.4-12.1 0-6.7-7.8-12-17.4-12-9.5 0-17.3 5.3-17.3 12 0 6.6 7.8 12 17.3 12Z" fill="#fff"/><path d="M29.5 188.3c-9.7 0-17.6-5.6-17.6-12.4 0-6.9 8-12.4 17.6-12.4 9.8 0 17.7 5.5 17.7 12.4 0 6.8-8 12.4-17.7 12.4Zm0-24.2c-9.3 0-17 5.3-17 11.8 0 6.4 7.7 11.7 17 11.7 9.4 0 17-5.3 17-11.7 0-6.5-7.6-11.8-17-11.8Z" fill="#14171F"/><path d="M29.5 180.1c3.4 0 6.1-1.9 6.1-4.2 0-2.4-2.7-4.3-6-4.3-3.4 0-6.1 2-6.1 4.3s2.7 4.2 6 4.2Z" fill="#14171F"/><path d="M12.5 178.6a2.8 2.8 0 1 0 0-5.5 2.8 2.8 0 0 0 0 5.5Z" fill="#fff"/><path d="M12.5 174.4a1.5 1.5 0 1 1 0 3 1.5 1.5 0 0 1 0-3Zm0-1.3a2.8 2.8 0 1 0 0 5.5 2.8 2.8 0 0 0 0-5.5Z" fill="#14171F"/></g><defs><clipPath id="a"><path fill="#fff" transform="translate(12.4 4)" d="M0 0H165V185.7H0z"/></clipPath><clipPath id="b"><path fill="#fff" transform="translate(136.1 17)" d="M0 0H64.7V108.8H0z"/></clipPath><clipPath id="c"><path fill="#fff" transform="translate(146 36)" d="M0 0H45V82.1H0z"/></clipPath><clipPath id="d"><path fill="#fff" transform="translate(22.1 27.3)" d="M0 0H130.1V105.3H0z"/></clipPath><clipPath id="e"><path fill="#fff" transform="translate(5.2 193.8)" d="M0 0H197.7V.5H0z"/></clipPath><clipPath id="f"><path fill="#fff" transform="translate(53.5 68.1)" d="M0 0H142.4V126.3H0z"/></clipPath><clipPath id="g"><path fill="#fff" transform="matrix(-1 0 0 1 140.3 140.2)" d="M0 0H121.4V54.1H0z"/></clipPath><clipPath id="h"><path fill="#fff" transform="translate(17.8 139.3)" d="M0 0H123.4V55.3H0z"/></clipPath><clipPath id="i"><path fill="#fff" transform="translate(2.3 92.4)" d="M0 0H44.9V96.7H0z"/></clipPath></defs></svg>